<svg width="156" height="156" viewBox="0 0 156 156" fill="none" xmlns="http://www.w3.org/2000/svg">
<rect x="34" y="33" width="76" height="76" rx="16" fill="#5D5CD6"/>
<g filter="url(#filter0_f_1843_1332)">
<rect x="40" y="40" width="76" height="76" rx="16" fill="#5D5CD6" fill-opacity="0.15"/>
</g>
<g clip-path="url(#clip0_1843_1332)">
<path d="M82.2188 53.125C81.1992 53.1836 80.1953 53.4336 79.25 53.9063L73.75 56.5938H58.0938L49.1875 54.5C48.8867 54.3985 48.6133 54.4883 48.3125 54.6875C48.1133 54.7891 48 55.1055 48 55.4063V77.1875C48 77.6875 48.4141 78.086 48.8125 78.1875L52.125 78.75C51.8164 79.9883 52.1289 81.3477 53.0938 82.3125C53.8672 83.086 54.8945 83.4492 55.9063 83.4063C55.8633 84.418 56.2266 85.4453 57 86.2188C57.7734 86.9922 58.8008 87.3555 59.8125 87.3125C59.7813 88.3164 60.1406 89.3282 60.9063 90.0938C61.6523 90.8399 62.6406 91.2032 63.625 91.1875C63.6016 92.1758 63.9531 93.1719 64.6875 93.9063L64.7188 93.9375C65.8438 95.0352 67.5117 95.2852 68.875 94.6875L70.5 96.3125C71.3008 97.1133 72.3984 97.5938 73.5 97.5938C74.6016 97.5938 75.6992 97.211 76.5 96.3125C77.3008 95.5117 77.7109 94.5078 77.8125 93.4063C79.2109 93.7071 80.8047 93.3125 81.9063 92.3125C82.707 91.5117 83.0859 90.5078 83.1875 89.4063C84.5859 89.7071 86.2109 89.3125 87.3125 88.3125C88.2109 87.4141 88.6016 86.1055 88.5 84.9063C89.8008 85.0078 91.0078 84.586 91.9063 83.6875C92.9961 82.5977 93.375 80.9492 93 79.5L93.4688 79.0313L97.1563 78.5C97.707 78.4141 98.0859 77.8946 98 77.3438C97.9141 76.793 97.3945 76.4141 96.8438 76.5L92.8438 77.125L92.5313 77.1563L91.2188 78.4688L79.0938 66.3125C79.4375 65.9805 79.4961 65.4532 79.2383 65.0508C78.9805 64.6485 78.4766 64.4844 78.0313 64.6563L71.5313 67.1563C68.1133 68.5078 64.2656 67.6289 61.8438 64.9375L61.8125 64.9063C61.6836 64.7774 61.6758 64.6875 61.8438 64.625H61.9063L61.9375 64.5938L80.125 55.6875H80.1563C82 54.7657 84.1523 54.9532 85.8438 56.0938L86.2188 56.5313L86.3125 56.6563L86.4375 56.7188C88.2539 57.9688 90.4414 58.3008 92.5 57.75V57.7813L92.5625 57.75L97.2188 56.7813C97.7617 56.6602 98.1055 56.1211 97.9844 55.5782C97.8633 55.0352 97.3242 54.6914 96.7813 54.8125L92.0938 55.8125L92.0625 55.8438H92.0313C90.5391 56.2578 89 55.9844 87.6563 55.0938L87.2813 54.6563L87.1875 54.5625L87.0625 54.4688C85.9141 53.6641 84.6016 53.2266 83.25 53.125C82.9102 53.1016 82.5586 53.1055 82.2188 53.125ZM56.75 76.8438C57.1875 76.8438 57.6328 77.0391 58 77.4063C58.7344 78.1407 58.7344 79.1719 58 79.9063L57.2188 80.6563L57.125 80.75L57 80.9063C56.2656 81.6407 55.2344 81.6407 54.5 80.9063C53.7656 80.1719 53.7656 79.1407 54.5 78.4063L55.375 77.5625L55.5 77.4063C55.8672 77.0391 56.3125 76.8438 56.75 76.8438ZM60.6563 80.75C61.0938 80.75 61.5391 80.9453 61.9063 81.3125C62.6406 82.0469 62.6406 83.0469 61.9063 83.7813L60.9063 84.7813C60.1719 85.5157 59.1406 85.5157 58.4063 84.7813C57.6719 84.0469 57.6719 83.0469 58.4063 82.3125L59.4063 81.3125C59.7734 80.9453 60.2188 80.75 60.6563 80.75ZM64.5625 84.6563C65 84.6563 65.4141 84.8516 65.7813 85.2188C66.3867 85.8242 66.4883 86.6133 66.0938 87.2813C65.957 87.3828 65.8125 87.4688 65.6875 87.5938L64.6875 88.5938V88.625H64.6563C64.5469 88.7461 64.4648 88.8711 64.375 89C63.707 89.3946 62.918 89.293 62.3125 88.6875C61.5781 87.9532 61.5781 86.9532 62.3125 86.2188L63.0625 85.4375L63.25 85.2813L63.3125 85.2188C63.6797 84.8516 64.125 84.6563 64.5625 84.6563ZM68.3438 88.4688C68.7813 88.4688 69.2266 88.6328 69.5938 89C70.3281 89.7344 70.3281 90.7657 69.5938 91.5L68.5938 92.5C67.8594 93.2344 66.8281 93.2344 66.0938 92.5C65.6211 92.0274 65.5117 91.0821 65.8438 90.375C65.9688 90.2774 66.1055 90.2071 66.2188 90.0938L67.2188 89.0938C67.3516 88.961 67.4531 88.8047 67.5625 88.6563C67.8125 88.5313 68.082 88.4688 68.3438 88.4688Z" fill="white"/>
</g>
<defs>
<filter id="filter0_f_1843_1332" x="0" y="0" width="156" height="156" filterUnits="userSpaceOnUse" color-interpolation-filters="sRGB">
<feFlood flood-opacity="0" result="BackgroundImageFix"/>
<feBlend mode="normal" in="SourceGraphic" in2="BackgroundImageFix" result="shape"/>
<feGaussianBlur stdDeviation="20" result="effect1_foregroundBlur_1843_1332"/>
</filter>
<clipPath id="clip0_1843_1332">
<rect width="50" height="50" fill="white" transform="translate(48 49)"/>
</clipPath>
</defs>
</svg>
