<svg width="92" height="92" viewBox="0 0 92 92" fill="none" xmlns="http://www.w3.org/2000/svg">
<path id="Star 2" d="M44.0867 2.28627C44.662 0.396078 47.338 0.396074 47.9133 2.28626L57.3567 33.3123C57.5508 33.9501 58.0499 34.4492 58.6877 34.6433L89.7137 44.0867C91.6039 44.662 91.6039 47.338 89.7137 47.9133L58.6877 57.3567C58.0499 57.5508 57.5508 58.0499 57.3567 58.6877L47.9133 89.7137C47.338 91.6039 44.662 91.6039 44.0867 89.7137L34.6433 58.6877C34.4492 58.0499 33.9501 57.5508 33.3123 57.3567L2.28627 47.9133C0.396078 47.338 0.396074 44.662 2.28626 44.0867L33.3123 34.6433C33.9501 34.4492 34.4492 33.9501 34.6433 33.3123L44.0867 2.28627Z" fill="#FFB800"/>
</svg>
