<svg width="1451" height="66" viewBox="0 0 1451 66" fill="none" xmlns="http://www.w3.org/2000/svg">
<rect x="-83.75" y="1.25" width="1558.5" height="63.5" fill="#5D5CD6" stroke="#5D5CD6" stroke-width="2.5"/>
<rect width="1854" height="32" transform="translate(-202 16)" fill="#5D5CD6"/>
<path d="M-190.141 44.4219C-192.234 44.4219 -194.104 43.9792 -195.75 43.0938C-197.385 42.2083 -198.661 40.9531 -199.578 39.3281C-200.495 37.7031 -200.953 35.8281 -200.953 33.7031C-200.953 31.6094 -200.5 29.7552 -199.594 28.1406C-198.688 26.5156 -197.422 25.2604 -195.797 24.375C-194.161 23.4896 -192.276 23.0469 -190.141 23.0469C-188.37 23.0469 -186.745 23.3594 -185.266 23.9844C-183.786 24.6094 -182.573 25.5052 -181.625 26.6719C-180.667 27.8385 -180.083 29.1979 -179.875 30.75H-185.062C-185.302 29.75 -185.891 28.9427 -186.828 28.3281C-187.755 27.7031 -188.88 27.3906 -190.203 27.3906C-191.995 27.3906 -193.417 27.9688 -194.469 29.125C-195.51 30.2708 -196.031 31.8177 -196.031 33.7656C-196.031 35.724 -195.5 37.2708 -194.438 38.4062C-193.365 39.5312 -191.953 40.0938 -190.203 40.0938C-188.922 40.0938 -187.812 39.7812 -186.875 39.1562C-185.938 38.5208 -185.333 37.6927 -185.062 36.6719H-179.875C-180.062 38.1823 -180.615 39.526 -181.531 40.7031C-182.448 41.8802 -183.656 42.7969 -185.156 43.4531C-186.646 44.099 -188.307 44.4219 -190.141 44.4219ZM-155.969 33.7344C-155.969 35.8177 -156.448 37.6719 -157.406 39.2969C-158.354 40.9219 -159.667 42.1823 -161.344 43.0781C-163.01 43.974 -164.911 44.4219 -167.047 44.4219C-169.161 44.4219 -171.057 43.974 -172.734 43.0781C-174.401 42.1823 -175.703 40.9271 -176.641 39.3125C-177.578 37.6979 -178.047 35.849 -178.047 33.7656C-178.047 31.6719 -177.578 29.8177 -176.641 28.2031C-175.703 26.5781 -174.401 25.3125 -172.734 24.4062C-171.057 23.5 -169.151 23.0469 -167.016 23.0469C-164.901 23.0469 -163.01 23.4948 -161.344 24.3906C-159.667 25.2865 -158.354 26.5469 -157.406 28.1719C-156.448 29.7865 -155.969 31.6406 -155.969 33.7344ZM-160.938 33.7344C-160.938 32.4948 -161.193 31.3958 -161.703 30.4375C-162.214 29.4688 -162.927 28.7188 -163.844 28.1875C-164.76 27.6562 -165.807 27.3906 -166.984 27.3906C-168.182 27.3906 -169.245 27.6562 -170.172 28.1875C-171.099 28.7188 -171.823 29.4688 -172.344 30.4375C-172.865 31.3958 -173.125 32.5052 -173.125 33.7656C-173.125 35.0052 -172.87 36.1042 -172.359 37.0625C-171.849 38.0208 -171.13 38.7604 -170.203 39.2812C-169.276 39.8021 -168.214 40.0625 -167.016 40.0625C-165.839 40.0625 -164.786 39.7969 -163.859 39.2656C-162.932 38.7344 -162.214 37.9896 -161.703 37.0312C-161.193 36.0625 -160.938 34.9635 -160.938 33.7344ZM-132.016 23.4844V44H-136.547V41.4375C-136.547 38.6042 -136.432 36.0781 -136.203 33.8594L-140.547 43.4219H-144.688L-148.688 34.1094C-148.427 36.8385 -148.297 39.2812 -148.297 41.4375V44H-152.75V23.4844H-148.656L-142.469 38.2656L-136.141 23.4844H-132.016ZM-127.625 44V23.4844H-122.953V44H-127.625ZM-101.438 23.4844V44H-105.781L-114.203 31.5781V44H-118.812V23.4844H-114.453L-106.078 35.9375V23.4844H-101.438ZM-77.1875 32.6406V34.8438C-77.1875 36.7396 -77.6302 38.4115 -78.5156 39.8594C-79.401 41.2969 -80.6406 42.4167 -82.2344 43.2188C-83.8177 44.0208 -85.625 44.4219 -87.6562 44.4219C-89.7708 44.4219 -91.6302 43.9844 -93.2344 43.1094C-94.8281 42.2344 -96.0625 41.0052 -96.9375 39.4219C-97.8021 37.8281 -98.2344 35.9844 -98.2344 33.8906C-98.2344 31.776 -97.7812 29.901 -96.875 28.2656C-95.9688 26.6198 -94.7031 25.3385 -93.0781 24.4219C-91.4427 23.5052 -89.5677 23.0469 -87.4531 23.0469C-85.7031 23.0469 -84.125 23.3542 -82.7188 23.9688C-81.3125 24.5833 -80.1615 25.4479 -79.2656 26.5625C-78.3698 27.6667 -77.7917 28.9479 -77.5312 30.4062H-82.5312C-82.875 29.4688 -83.4948 28.7344 -84.3906 28.2031C-85.2865 27.6615 -86.3385 27.3906 -87.5469 27.3906C-89.3594 27.3906 -90.7917 27.974 -91.8438 29.1406C-92.8854 30.2969 -93.4062 31.8594 -93.4062 33.8281C-93.4062 35.7865 -92.8802 37.3229 -91.8281 38.4375C-90.7656 39.5417 -89.349 40.0938 -87.5781 40.0938C-86.2135 40.0938 -85.0469 39.7865 -84.0781 39.1719C-83.1094 38.5469 -82.4844 37.6927 -82.2031 36.6094H-87.7188V32.6406H-77.1875ZM-66.9531 29.5625C-66.9531 28.2396 -66.6354 27.0885 -66 26.1094C-65.3542 25.1302 -64.4583 24.375 -63.3125 23.8438C-62.1562 23.3125 -60.8073 23.0469 -59.2656 23.0469C-57.776 23.0469 -56.4479 23.3073 -55.2812 23.8281C-54.1146 24.349 -53.2083 25.0885 -52.5625 26.0469C-51.9167 27.0052 -51.5833 28.1042 -51.5625 29.3438H-56.3906C-56.4115 28.6354 -56.7135 28.0625 -57.2969 27.625C-57.8802 27.1875 -58.6198 26.9688 -59.5156 26.9688C-60.3073 26.9688 -60.9427 27.151 -61.4219 27.5156C-61.901 27.8802 -62.1406 28.3698 -62.1406 28.9844C-62.1406 29.5573 -61.9375 29.9896 -61.5312 30.2812C-61.1146 30.5729 -60.5 30.8177 -59.6875 31.0156L-56.4531 31.75C-54.6406 32.1771 -53.2812 32.9115 -52.375 33.9531C-51.4688 34.9948 -51.0156 36.2656 -51.0156 37.7656C-51.0156 39.1094 -51.3542 40.2812 -52.0312 41.2812C-52.6979 42.2812 -53.6458 43.0573 -54.875 43.6094C-56.0938 44.151 -57.5156 44.4219 -59.1406 44.4219C-61.5677 44.4219 -63.5365 43.8333 -65.0469 42.6562C-66.5469 41.4792 -67.3698 39.8802 -67.5156 37.8594H-62.7188C-62.6562 38.6927 -62.3021 39.3385 -61.6562 39.7969C-61 40.2552 -60.1406 40.4844 -59.0781 40.4844C-58.099 40.4844 -57.3333 40.2865 -56.7812 39.8906C-56.2188 39.4948 -55.9375 38.9531 -55.9375 38.2656C-55.9375 37.7135 -56.1198 37.2865 -56.4844 36.9844C-56.849 36.6719 -57.3594 36.4375 -58.0156 36.2812L-61.4062 35.4844C-63.3229 35.0365 -64.7292 34.3021 -65.625 33.2812C-66.5104 32.2604 -66.9531 31.0208 -66.9531 29.5625ZM-26.9062 33.7344C-26.9062 35.8177 -27.3854 37.6719 -28.3438 39.2969C-29.2917 40.9219 -30.6042 42.1823 -32.2812 43.0781C-33.9479 43.974 -35.849 44.4219 -37.9844 44.4219C-40.099 44.4219 -41.9948 43.974 -43.6719 43.0781C-45.3385 42.1823 -46.6406 40.9271 -47.5781 39.3125C-48.5156 37.6979 -48.9844 35.849 -48.9844 33.7656C-48.9844 31.6719 -48.5156 29.8177 -47.5781 28.2031C-46.6406 26.5781 -45.3385 25.3125 -43.6719 24.4062C-41.9948 23.5 -40.0885 23.0469 -37.9531 23.0469C-35.8385 23.0469 -33.9479 23.4948 -32.2812 24.3906C-30.6042 25.2865 -29.2917 26.5469 -28.3438 28.1719C-27.3854 29.7865 -26.9062 31.6406 -26.9062 33.7344ZM-31.875 33.7344C-31.875 32.4948 -32.1302 31.3958 -32.6406 30.4375C-33.151 29.4688 -33.8646 28.7188 -34.7812 28.1875C-35.6979 27.6562 -36.7448 27.3906 -37.9219 27.3906C-39.1198 27.3906 -40.1823 27.6562 -41.1094 28.1875C-42.0365 28.7188 -42.7604 29.4688 -43.2812 30.4375C-43.8021 31.3958 -44.0625 32.5052 -44.0625 33.7656C-44.0625 35.0052 -43.8073 36.1042 -43.2969 37.0625C-42.7865 38.0208 -42.0677 38.7604 -41.1406 39.2812C-40.2135 39.8021 -39.151 40.0625 -37.9531 40.0625C-36.776 40.0625 -35.724 39.7969 -34.7969 39.2656C-33.8698 38.7344 -33.151 37.9896 -32.6406 37.0312C-32.1302 36.0625 -31.875 34.9635 -31.875 33.7344ZM-2.78125 33.7344C-2.78125 35.8177 -3.26042 37.6719 -4.21875 39.2969C-5.16667 40.9219 -6.47917 42.1823 -8.15625 43.0781C-9.82292 43.974 -11.724 44.4219 -13.8594 44.4219C-15.974 44.4219 -17.8698 43.974 -19.5469 43.0781C-21.2135 42.1823 -22.5156 40.9271 -23.4531 39.3125C-24.3906 37.6979 -24.8594 35.849 -24.8594 33.7656C-24.8594 31.6719 -24.3906 29.8177 -23.4531 28.2031C-22.5156 26.5781 -21.2135 25.3125 -19.5469 24.4062C-17.8698 23.5 -15.9635 23.0469 -13.8281 23.0469C-11.7135 23.0469 -9.82292 23.4948 -8.15625 24.3906C-6.47917 25.2865 -5.16667 26.5469 -4.21875 28.1719C-3.26042 29.7865 -2.78125 31.6406 -2.78125 33.7344ZM-7.75 33.7344C-7.75 32.4948 -8.00521 31.3958 -8.51562 30.4375C-9.02604 29.4688 -9.73958 28.7188 -10.6562 28.1875C-11.5729 27.6562 -12.6198 27.3906 -13.7969 27.3906C-14.9948 27.3906 -16.0573 27.6562 -16.9844 28.1875C-17.9115 28.7188 -18.6354 29.4688 -19.1562 30.4375C-19.6771 31.3958 -19.9375 32.5052 -19.9375 33.7656C-19.9375 35.0052 -19.6823 36.1042 -19.1719 37.0625C-18.6615 38.0208 -17.9427 38.7604 -17.0156 39.2812C-16.0885 39.8021 -15.026 40.0625 -13.8281 40.0625C-12.651 40.0625 -11.599 39.7969 -10.6719 39.2656C-9.74479 38.7344 -9.02604 37.9896 -8.51562 37.0312C-8.00521 36.0625 -7.75 34.9635 -7.75 33.7344ZM17.8125 23.4844V44H13.4688L5.04688 31.5781V44H0.4375V23.4844H4.79688L13.1719 35.9375V23.4844H17.8125Z" fill="#FEFEFE"/>
<path d="M54.395 41.24L62.0017 33.6333C62.9 32.735 62.9 31.265 62.0017 30.3667L54.395 22.76" stroke="#FEFEFE" stroke-width="3" stroke-miterlimit="10" stroke-linecap="round" stroke-linejoin="round"/>
<path d="M62.395 41.24L70.0017 33.6333C70.9 32.735 70.9 31.265 70.0017 30.3667L62.395 22.76" stroke="#FEFEFE" stroke-width="3" stroke-miterlimit="10" stroke-linecap="round" stroke-linejoin="round"/>
<path d="M45.605 41.24L37.9983 33.6333C37.1 32.735 37.1 31.265 37.9983 30.3667L45.605 22.76" stroke="#FEFEFE" stroke-width="3" stroke-miterlimit="10" stroke-linecap="round" stroke-linejoin="round"/>
<path d="M37.605 41.24L29.9983 33.6333C29.1 32.735 29.1 31.265 29.9983 30.3667L37.605 22.76" stroke="#FEFEFE" stroke-width="3" stroke-miterlimit="10" stroke-linecap="round" stroke-linejoin="round"/>
<path d="M81.9531 29.5625C81.9531 28.2396 82.2708 27.0885 82.9062 26.1094C83.5521 25.1302 84.4479 24.375 85.5938 23.8438C86.75 23.3125 88.099 23.0469 89.6406 23.0469C91.1302 23.0469 92.4583 23.3073 93.625 23.8281C94.7917 24.349 95.6979 25.0885 96.3438 26.0469C96.9896 27.0052 97.3229 28.1042 97.3438 29.3438H92.5156C92.4948 28.6354 92.1927 28.0625 91.6094 27.625C91.026 27.1875 90.2865 26.9688 89.3906 26.9688C88.599 26.9688 87.9635 27.151 87.4844 27.5156C87.0052 27.8802 86.7656 28.3698 86.7656 28.9844C86.7656 29.5573 86.9688 29.9896 87.375 30.2812C87.7917 30.5729 88.4062 30.8177 89.2188 31.0156L92.4531 31.75C94.2656 32.1771 95.625 32.9115 96.5312 33.9531C97.4375 34.9948 97.8906 36.2656 97.8906 37.7656C97.8906 39.1094 97.5521 40.2812 96.875 41.2812C96.2083 42.2812 95.2604 43.0573 94.0312 43.6094C92.8125 44.151 91.3906 44.4219 89.7656 44.4219C87.3385 44.4219 85.3698 43.8333 83.8594 42.6562C82.3594 41.4792 81.5365 39.8802 81.3906 37.8594H86.1875C86.25 38.6927 86.6042 39.3385 87.25 39.7969C87.9062 40.2552 88.7656 40.4844 89.8281 40.4844C90.8073 40.4844 91.5729 40.2865 92.125 39.8906C92.6875 39.4948 92.9688 38.9531 92.9688 38.2656C92.9688 37.7135 92.7865 37.2865 92.4219 36.9844C92.0573 36.6719 91.5469 36.4375 90.8906 36.2812L87.5 35.4844C85.5833 35.0365 84.1771 34.3021 83.2812 33.2812C82.3958 32.2604 81.9531 31.0208 81.9531 29.5625ZM109.859 23.4844C112.099 23.4844 113.859 24.1042 115.141 25.3438C116.422 26.5833 117.062 28.2604 117.062 30.375C117.062 31.7188 116.776 32.9062 116.203 33.9375C115.63 34.9688 114.792 35.776 113.688 36.3594C112.594 36.9323 111.286 37.2188 109.766 37.2188H105.828V44H101.156V23.4844H109.859ZM108.906 33.2188C110.01 33.2188 110.823 32.9323 111.344 32.3594C111.875 31.776 112.141 31.0781 112.141 30.2656C112.141 29.5573 111.875 28.9271 111.344 28.375C110.823 27.8229 110.021 27.5469 108.938 27.5469H105.828V33.2188H108.906ZM124.078 23.4844H128.594L136.203 44H131.25L129.734 39.7812H122.828L121.297 44H116.422L124.078 23.4844ZM128.391 35.875L127.594 33.6562C127.406 33.0833 127.13 32.224 126.766 31.0781L126.344 29.7969C126.281 30.0781 126.115 30.599 125.844 31.3594C125.583 32.1094 125.302 32.875 125 33.6562L124.172 35.875H128.391ZM147.234 44.4219C145.141 44.4219 143.271 43.9792 141.625 43.0938C139.99 42.2083 138.714 40.9531 137.797 39.3281C136.88 37.7031 136.422 35.8281 136.422 33.7031C136.422 31.6094 136.875 29.7552 137.781 28.1406C138.688 26.5156 139.953 25.2604 141.578 24.375C143.214 23.4896 145.099 23.0469 147.234 23.0469C149.005 23.0469 150.63 23.3594 152.109 23.9844C153.589 24.6094 154.802 25.5052 155.75 26.6719C156.708 27.8385 157.292 29.1979 157.5 30.75H152.312C152.073 29.75 151.484 28.9427 150.547 28.3281C149.62 27.7031 148.495 27.3906 147.172 27.3906C145.38 27.3906 143.958 27.9688 142.906 29.125C141.865 30.2708 141.344 31.8177 141.344 33.7656C141.344 35.724 141.875 37.2708 142.938 38.4062C144.01 39.5312 145.422 40.0938 147.172 40.0938C148.453 40.0938 149.562 39.7812 150.5 39.1562C151.438 38.5208 152.042 37.6927 152.312 36.6719H157.5C157.312 38.1823 156.76 39.526 155.844 40.7031C154.927 41.8802 153.719 42.7969 152.219 43.4531C150.729 44.099 149.068 44.4219 147.234 44.4219ZM165.391 27.7188V31.6094H173.297V35.6875H165.391V39.7812H174.266V44H160.719V23.4844H174.266V27.7188H165.391ZM178.094 23.4844H186.359C189.068 23.4844 191.099 24.0521 192.453 25.1875C193.807 26.3125 194.484 27.9635 194.484 30.1406C194.484 31.5469 194.182 32.75 193.578 33.75C192.984 34.7396 192.115 35.5 190.969 36.0312L194.703 44H189.453L186.297 36.8281H182.766V44H178.094V23.4844ZM186.328 32.8281C187.411 32.8281 188.219 32.5781 188.75 32.0781C189.281 31.5781 189.547 30.9427 189.547 30.1719C189.547 29.4219 189.292 28.7969 188.781 28.2969C188.271 27.7969 187.464 27.5469 186.359 27.5469H182.766V32.8281H186.328ZM199.734 23.2969C200.568 23.2969 201.24 23.599 201.75 24.2031C202.26 24.7969 202.516 25.5833 202.516 26.5625C202.516 27.9479 202.047 29.1094 201.109 30.0469C200.172 30.9844 198.901 31.5312 197.297 31.6875V30.5C198.255 30.3958 198.99 30.0938 199.5 29.5938C200.021 29.0833 200.281 28.5 200.281 27.8438C200.021 27.9688 199.719 28.0312 199.375 28.0312C198.76 28.0312 198.24 27.8229 197.812 27.4062C197.385 26.9896 197.172 26.4427 197.172 25.7656C197.172 25.0365 197.406 24.4427 197.875 23.9844C198.344 23.526 198.964 23.2969 199.734 23.2969ZM205.391 29.5625C205.391 28.2396 205.708 27.0885 206.344 26.1094C206.99 25.1302 207.885 24.375 209.031 23.8438C210.188 23.3125 211.536 23.0469 213.078 23.0469C214.568 23.0469 215.896 23.3073 217.062 23.8281C218.229 24.349 219.135 25.0885 219.781 26.0469C220.427 27.0052 220.76 28.1042 220.781 29.3438H215.953C215.932 28.6354 215.63 28.0625 215.047 27.625C214.464 27.1875 213.724 26.9688 212.828 26.9688C212.036 26.9688 211.401 27.151 210.922 27.5156C210.443 27.8802 210.203 28.3698 210.203 28.9844C210.203 29.5573 210.406 29.9896 210.812 30.2812C211.229 30.5729 211.844 30.8177 212.656 31.0156L215.891 31.75C217.703 32.1771 219.062 32.9115 219.969 33.9531C220.875 34.9948 221.328 36.2656 221.328 37.7656C221.328 39.1094 220.99 40.2812 220.312 41.2812C219.646 42.2812 218.698 43.0573 217.469 43.6094C216.25 44.151 214.828 44.4219 213.203 44.4219C210.776 44.4219 208.807 43.8333 207.297 42.6562C205.797 41.4792 204.974 39.8802 204.828 37.8594H209.625C209.688 38.6927 210.042 39.3385 210.688 39.7969C211.344 40.2552 212.203 40.4844 213.266 40.4844C214.245 40.4844 215.01 40.2865 215.562 39.8906C216.125 39.4948 216.406 38.9531 216.406 38.2656C216.406 37.7135 216.224 37.2865 215.859 36.9844C215.495 36.6719 214.984 36.4375 214.328 36.2812L210.938 35.4844C209.021 35.0365 207.615 34.3021 206.719 33.2812C205.833 32.2604 205.391 31.0208 205.391 29.5625ZM232.219 23.4844H236.891V31.6406H244.859V23.4844H249.562V44H244.859V35.7188H236.891V44H232.219V23.4844ZM259.391 23.4844H263.906L271.516 44H266.562L265.047 39.7812H258.141L256.609 44H251.734L259.391 23.4844ZM263.703 35.875L262.906 33.6562C262.719 33.0833 262.443 32.224 262.078 31.0781L261.656 29.7969C261.594 30.0781 261.427 30.599 261.156 31.3594C260.896 32.1094 260.615 32.875 260.312 33.6562L259.484 35.875H263.703ZM282.547 44.4219C280.453 44.4219 278.583 43.9792 276.938 43.0938C275.302 42.2083 274.026 40.9531 273.109 39.3281C272.193 37.7031 271.734 35.8281 271.734 33.7031C271.734 31.6094 272.188 29.7552 273.094 28.1406C274 26.5156 275.266 25.2604 276.891 24.375C278.526 23.4896 280.411 23.0469 282.547 23.0469C284.318 23.0469 285.943 23.3594 287.422 23.9844C288.901 24.6094 290.115 25.5052 291.062 26.6719C292.021 27.8385 292.604 29.1979 292.812 30.75H287.625C287.385 29.75 286.797 28.9427 285.859 28.3281C284.932 27.7031 283.807 27.3906 282.484 27.3906C280.693 27.3906 279.271 27.9688 278.219 29.125C277.177 30.2708 276.656 31.8177 276.656 33.7656C276.656 35.724 277.188 37.2708 278.25 38.4062C279.323 39.5312 280.734 40.0938 282.484 40.0938C283.766 40.0938 284.875 39.7812 285.812 39.1562C286.75 38.5208 287.354 37.6927 287.625 36.6719H292.812C292.625 38.1823 292.073 39.526 291.156 40.7031C290.24 41.8802 289.031 42.7969 287.531 43.4531C286.042 44.099 284.38 44.4219 282.547 44.4219ZM303.75 36.3594L300.703 40.1562V44.0938H296.031V23.4844H300.703V32.8906L308.125 23.4844H313.953L306.922 32.3125L313.984 44H308.391L303.75 36.3594ZM333.703 44.4219C331.609 44.4219 329.74 43.9792 328.094 43.0938C326.458 42.2083 325.182 40.9531 324.266 39.3281C323.349 37.7031 322.891 35.8281 322.891 33.7031C322.891 31.6094 323.344 29.7552 324.25 28.1406C325.156 26.5156 326.422 25.2604 328.047 24.375C329.682 23.4896 331.568 23.0469 333.703 23.0469C335.474 23.0469 337.099 23.3594 338.578 23.9844C340.057 24.6094 341.271 25.5052 342.219 26.6719C343.177 27.8385 343.76 29.1979 343.969 30.75H338.781C338.542 29.75 337.953 28.9427 337.016 28.3281C336.089 27.7031 334.964 27.3906 333.641 27.3906C331.849 27.3906 330.427 27.9688 329.375 29.125C328.333 30.2708 327.812 31.8177 327.812 33.7656C327.812 35.724 328.344 37.2708 329.406 38.4062C330.479 39.5312 331.891 40.0938 333.641 40.0938C334.922 40.0938 336.031 39.7812 336.969 39.1562C337.906 38.5208 338.51 37.6927 338.781 36.6719H343.969C343.781 38.1823 343.229 39.526 342.312 40.7031C341.396 41.8802 340.188 42.7969 338.688 43.4531C337.198 44.099 335.536 44.4219 333.703 44.4219ZM367.875 33.7344C367.875 35.8177 367.396 37.6719 366.438 39.2969C365.49 40.9219 364.177 42.1823 362.5 43.0781C360.833 43.974 358.932 44.4219 356.797 44.4219C354.682 44.4219 352.786 43.974 351.109 43.0781C349.443 42.1823 348.141 40.9271 347.203 39.3125C346.266 37.6979 345.797 35.849 345.797 33.7656C345.797 31.6719 346.266 29.8177 347.203 28.2031C348.141 26.5781 349.443 25.3125 351.109 24.4062C352.786 23.5 354.693 23.0469 356.828 23.0469C358.943 23.0469 360.833 23.4948 362.5 24.3906C364.177 25.2865 365.49 26.5469 366.438 28.1719C367.396 29.7865 367.875 31.6406 367.875 33.7344ZM362.906 33.7344C362.906 32.4948 362.651 31.3958 362.141 30.4375C361.63 29.4688 360.917 28.7188 360 28.1875C359.083 27.6562 358.036 27.3906 356.859 27.3906C355.661 27.3906 354.599 27.6562 353.672 28.1875C352.745 28.7188 352.021 29.4688 351.5 30.4375C350.979 31.3958 350.719 32.5052 350.719 33.7656C350.719 35.0052 350.974 36.1042 351.484 37.0625C351.995 38.0208 352.714 38.7604 353.641 39.2812C354.568 39.8021 355.63 40.0625 356.828 40.0625C358.005 40.0625 359.057 39.7969 359.984 39.2656C360.911 38.7344 361.63 37.9896 362.141 37.0312C362.651 36.0625 362.906 34.9635 362.906 33.7344ZM388.469 23.4844V44H384.125L375.703 31.5781V44H371.094V23.4844H375.453L383.828 35.9375V23.4844H388.469ZM397.516 27.7188V31.9375H405.078L405.047 36H397.516V44H392.844V23.4844H406.484V27.7188H397.516ZM423.781 39.9375H430.531V44H417.031V40.7656L424.359 33.125C424.891 32.5521 425.307 32.0104 425.609 31.5C425.911 30.9792 426.062 30.3906 426.062 29.7344C426.062 28.9427 425.823 28.3229 425.344 27.875C424.875 27.4271 424.24 27.2031 423.438 27.2031C422.542 27.2031 421.844 27.474 421.344 28.0156C420.854 28.5573 420.641 29.2656 420.703 30.1406H416.266C416.182 28.7552 416.453 27.526 417.078 26.4531C417.703 25.3698 418.594 24.5365 419.75 23.9531C420.906 23.3698 422.219 23.0781 423.688 23.0781C425.052 23.0781 426.26 23.3385 427.312 23.8594C428.375 24.3802 429.193 25.1146 429.766 26.0625C430.339 27.0104 430.625 28.1146 430.625 29.375C430.625 30.6979 430.359 31.8281 429.828 32.7656C429.297 33.7031 428.615 34.6302 427.781 35.5469L423.781 39.9375ZM441.078 44.3594C439.391 44.3594 437.927 43.9323 436.688 43.0781C435.458 42.224 434.516 40.9948 433.859 39.3906C433.214 37.7865 432.891 35.9115 432.891 33.7656C432.891 31.5885 433.214 29.6927 433.859 28.0781C434.516 26.4635 435.453 25.2292 436.672 24.375C437.901 23.5104 439.37 23.0781 441.078 23.0781C442.766 23.0781 444.229 23.5104 445.469 24.375C446.719 25.2292 447.677 26.4635 448.344 28.0781C449.021 29.6927 449.359 31.5885 449.359 33.7656C449.359 35.9219 449.021 37.8021 448.344 39.4062C447.677 41 446.719 42.224 445.469 43.0781C444.229 43.9323 442.766 44.3594 441.078 44.3594ZM441.109 40.3125C442.307 40.3125 443.208 39.75 443.812 38.625C444.417 37.4896 444.719 35.8698 444.719 33.7656C444.719 31.651 444.417 30.026 443.812 28.8906C443.208 27.7448 442.307 27.1719 441.109 27.1719C439.932 27.1719 439.031 27.7396 438.406 28.875C437.792 30 437.484 31.6302 437.484 33.7656C437.484 35.8594 437.792 37.474 438.406 38.6094C439.031 39.7448 439.932 40.3125 441.109 40.3125ZM459 39.9375H465.75V44H452.25V40.7656L459.578 33.125C460.109 32.5521 460.526 32.0104 460.828 31.5C461.13 30.9792 461.281 30.3906 461.281 29.7344C461.281 28.9427 461.042 28.3229 460.562 27.875C460.094 27.4271 459.458 27.2031 458.656 27.2031C457.76 27.2031 457.062 27.474 456.562 28.0156C456.073 28.5573 455.859 29.2656 455.922 30.1406H451.484C451.401 28.7552 451.672 27.526 452.297 26.4531C452.922 25.3698 453.812 24.5365 454.969 23.9531C456.125 23.3698 457.438 23.0781 458.906 23.0781C460.271 23.0781 461.479 23.3385 462.531 23.8594C463.594 24.3802 464.411 25.1146 464.984 26.0625C465.557 27.0104 465.844 28.1146 465.844 29.375C465.844 30.6979 465.578 31.8281 465.047 32.7656C464.516 33.7031 463.833 34.6302 463 35.5469L459 39.9375ZM478.281 31.3281C479.896 31.5677 481.182 32.2448 482.141 33.3594C483.109 34.4635 483.594 35.8229 483.594 37.4375C483.594 38.7812 483.26 39.974 482.594 41.0156C481.938 42.0469 481.021 42.8542 479.844 43.4375C478.667 44.0208 477.333 44.3125 475.844 44.3125C474.375 44.3125 473.057 44.026 471.891 43.4531C470.724 42.8802 469.823 42.0625 469.188 41C468.552 39.9271 468.245 38.6875 468.266 37.2812H472.734C472.734 38.1771 473.026 38.9062 473.609 39.4688C474.203 40.0312 474.969 40.3125 475.906 40.3125C476.823 40.3125 477.568 40.0469 478.141 39.5156C478.724 38.9844 479.016 38.2604 479.016 37.3438C479.016 36.4688 478.729 35.7812 478.156 35.2812C477.594 34.7812 476.844 34.5104 475.906 34.4688C475.646 34.4479 474.922 34.4375 473.734 34.4375H472.516V31.4531L476.672 27.3906H469.406V23.4844H482.469V27.1719L478.281 31.3281Z" fill="#FEFEFE"/>
<path d="M519.395 41.24L527.002 33.6333C527.9 32.735 527.9 31.265 527.002 30.3667L519.395 22.76" stroke="#FEFEFE" stroke-width="3" stroke-miterlimit="10" stroke-linecap="round" stroke-linejoin="round"/>
<path d="M527.395 41.24L535.002 33.6333C535.9 32.735 535.9 31.265 535.002 30.3667L527.395 22.76" stroke="#FEFEFE" stroke-width="3" stroke-miterlimit="10" stroke-linecap="round" stroke-linejoin="round"/>
<path d="M510.605 41.24L502.998 33.6333C502.1 32.735 502.1 31.265 502.998 30.3667L510.605 22.76" stroke="#FEFEFE" stroke-width="3" stroke-miterlimit="10" stroke-linecap="round" stroke-linejoin="round"/>
<path d="M502.605 41.24L494.998 33.6333C494.1 32.735 494.1 31.265 494.998 30.3667L502.605 22.76" stroke="#FEFEFE" stroke-width="3" stroke-miterlimit="10" stroke-linecap="round" stroke-linejoin="round"/>
<path d="M546.844 29.5625C546.844 28.2396 547.161 27.0885 547.797 26.1094C548.443 25.1302 549.339 24.375 550.484 23.8438C551.641 23.3125 552.99 23.0469 554.531 23.0469C556.021 23.0469 557.349 23.3073 558.516 23.8281C559.682 24.349 560.589 25.0885 561.234 26.0469C561.88 27.0052 562.214 28.1042 562.234 29.3438H557.406C557.385 28.6354 557.083 28.0625 556.5 27.625C555.917 27.1875 555.177 26.9688 554.281 26.9688C553.49 26.9688 552.854 27.151 552.375 27.5156C551.896 27.8802 551.656 28.3698 551.656 28.9844C551.656 29.5573 551.859 29.9896 552.266 30.2812C552.682 30.5729 553.297 30.8177 554.109 31.0156L557.344 31.75C559.156 32.1771 560.516 32.9115 561.422 33.9531C562.328 34.9948 562.781 36.2656 562.781 37.7656C562.781 39.1094 562.443 40.2812 561.766 41.2812C561.099 42.2812 560.151 43.0573 558.922 43.6094C557.703 44.151 556.281 44.4219 554.656 44.4219C552.229 44.4219 550.26 43.8333 548.75 42.6562C547.25 41.4792 546.427 39.8802 546.281 37.8594H551.078C551.141 38.6927 551.495 39.3385 552.141 39.7969C552.797 40.2552 553.656 40.4844 554.719 40.4844C555.698 40.4844 556.464 40.2865 557.016 39.8906C557.578 39.4948 557.859 38.9531 557.859 38.2656C557.859 37.7135 557.677 37.2865 557.312 36.9844C556.948 36.6719 556.438 36.4375 555.781 36.2812L552.391 35.4844C550.474 35.0365 549.068 34.3021 548.172 33.2812C547.286 32.2604 546.844 31.0208 546.844 29.5625ZM570.719 27.7188V31.6094H578.625V35.6875H570.719V39.7812H579.594V44H566.047V23.4844H579.594V27.7188H570.719ZM588.094 27.7188V31.6094H596V35.6875H588.094V39.7812H596.969V44H583.422V23.4844H596.969V27.7188H588.094ZM607.812 29.5625C607.812 28.2396 608.13 27.0885 608.766 26.1094C609.411 25.1302 610.307 24.375 611.453 23.8438C612.609 23.3125 613.958 23.0469 615.5 23.0469C616.99 23.0469 618.318 23.3073 619.484 23.8281C620.651 24.349 621.557 25.0885 622.203 26.0469C622.849 27.0052 623.182 28.1042 623.203 29.3438H618.375C618.354 28.6354 618.052 28.0625 617.469 27.625C616.885 27.1875 616.146 26.9688 615.25 26.9688C614.458 26.9688 613.823 27.151 613.344 27.5156C612.865 27.8802 612.625 28.3698 612.625 28.9844C612.625 29.5573 612.828 29.9896 613.234 30.2812C613.651 30.5729 614.266 30.8177 615.078 31.0156L618.312 31.75C620.125 32.1771 621.484 32.9115 622.391 33.9531C623.297 34.9948 623.75 36.2656 623.75 37.7656C623.75 39.1094 623.411 40.2812 622.734 41.2812C622.068 42.2812 621.12 43.0573 619.891 43.6094C618.672 44.151 617.25 44.4219 615.625 44.4219C613.198 44.4219 611.229 43.8333 609.719 42.6562C608.219 41.4792 607.396 39.8802 607.25 37.8594H612.047C612.109 38.6927 612.464 39.3385 613.109 39.7969C613.766 40.2552 614.625 40.4844 615.688 40.4844C616.667 40.4844 617.432 40.2865 617.984 39.8906C618.547 39.4948 618.828 38.9531 618.828 38.2656C618.828 37.7135 618.646 37.2865 618.281 36.9844C617.917 36.6719 617.406 36.4375 616.75 36.2812L613.359 35.4844C611.443 35.0365 610.036 34.3021 609.141 33.2812C608.255 32.2604 607.812 31.0208 607.812 29.5625ZM647.859 33.7344C647.859 35.8177 647.38 37.6719 646.422 39.2969C645.474 40.9219 644.161 42.1823 642.484 43.0781C640.818 43.974 638.917 44.4219 636.781 44.4219C634.667 44.4219 632.771 43.974 631.094 43.0781C629.427 42.1823 628.125 40.9271 627.188 39.3125C626.25 37.6979 625.781 35.849 625.781 33.7656C625.781 31.6719 626.25 29.8177 627.188 28.2031C628.125 26.5781 629.427 25.3125 631.094 24.4062C632.771 23.5 634.677 23.0469 636.812 23.0469C638.927 23.0469 640.818 23.4948 642.484 24.3906C644.161 25.2865 645.474 26.5469 646.422 28.1719C647.38 29.7865 647.859 31.6406 647.859 33.7344ZM642.891 33.7344C642.891 32.4948 642.635 31.3958 642.125 30.4375C641.615 29.4688 640.901 28.7188 639.984 28.1875C639.068 27.6562 638.021 27.3906 636.844 27.3906C635.646 27.3906 634.583 27.6562 633.656 28.1875C632.729 28.7188 632.005 29.4688 631.484 30.4375C630.964 31.3958 630.703 32.5052 630.703 33.7656C630.703 35.0052 630.958 36.1042 631.469 37.0625C631.979 38.0208 632.698 38.7604 633.625 39.2812C634.552 39.8021 635.615 40.0625 636.812 40.0625C637.99 40.0625 639.042 39.7969 639.969 39.2656C640.896 38.7344 641.615 37.9896 642.125 37.0312C642.635 36.0625 642.891 34.9635 642.891 33.7344ZM671.984 33.7344C671.984 35.8177 671.505 37.6719 670.547 39.2969C669.599 40.9219 668.286 42.1823 666.609 43.0781C664.943 43.974 663.042 44.4219 660.906 44.4219C658.792 44.4219 656.896 43.974 655.219 43.0781C653.552 42.1823 652.25 40.9271 651.312 39.3125C650.375 37.6979 649.906 35.849 649.906 33.7656C649.906 31.6719 650.375 29.8177 651.312 28.2031C652.25 26.5781 653.552 25.3125 655.219 24.4062C656.896 23.5 658.802 23.0469 660.938 23.0469C663.052 23.0469 664.943 23.4948 666.609 24.3906C668.286 25.2865 669.599 26.5469 670.547 28.1719C671.505 29.7865 671.984 31.6406 671.984 33.7344ZM667.016 33.7344C667.016 32.4948 666.76 31.3958 666.25 30.4375C665.74 29.4688 665.026 28.7188 664.109 28.1875C663.193 27.6562 662.146 27.3906 660.969 27.3906C659.771 27.3906 658.708 27.6562 657.781 28.1875C656.854 28.7188 656.13 29.4688 655.609 30.4375C655.089 31.3958 654.828 32.5052 654.828 33.7656C654.828 35.0052 655.083 36.1042 655.594 37.0625C656.104 38.0208 656.823 38.7604 657.75 39.2812C658.677 39.8021 659.74 40.0625 660.938 40.0625C662.115 40.0625 663.167 39.7969 664.094 39.2656C665.021 38.7344 665.74 37.9896 666.25 37.0312C666.76 36.0625 667.016 34.9635 667.016 33.7344ZM692.578 23.4844V44H688.234L679.812 31.5781V44H675.203V23.4844H679.562L687.938 35.9375V23.4844H692.578Z" fill="#FEFEFE"/>
<path d="M729.395 41.24L737.002 33.6333C737.9 32.735 737.9 31.265 737.002 30.3667L729.395 22.76" stroke="#FEFEFE" stroke-width="3" stroke-miterlimit="10" stroke-linecap="round" stroke-linejoin="round"/>
<path d="M737.395 41.24L745.002 33.6333C745.9 32.735 745.9 31.265 745.002 30.3667L737.395 22.76" stroke="#FEFEFE" stroke-width="3" stroke-miterlimit="10" stroke-linecap="round" stroke-linejoin="round"/>
<path d="M720.605 41.24L712.998 33.6333C712.1 32.735 712.1 31.265 712.998 30.3667L720.605 22.76" stroke="#FEFEFE" stroke-width="3" stroke-miterlimit="10" stroke-linecap="round" stroke-linejoin="round"/>
<path d="M712.605 41.24L704.998 33.6333C704.1 32.735 704.1 31.265 704.998 30.3667L712.605 22.76" stroke="#FEFEFE" stroke-width="3" stroke-miterlimit="10" stroke-linecap="round" stroke-linejoin="round"/>
<path d="M756.953 29.5625C756.953 28.2396 757.271 27.0885 757.906 26.1094C758.552 25.1302 759.448 24.375 760.594 23.8438C761.75 23.3125 763.099 23.0469 764.641 23.0469C766.13 23.0469 767.458 23.3073 768.625 23.8281C769.792 24.349 770.698 25.0885 771.344 26.0469C771.99 27.0052 772.323 28.1042 772.344 29.3438H767.516C767.495 28.6354 767.193 28.0625 766.609 27.625C766.026 27.1875 765.286 26.9688 764.391 26.9688C763.599 26.9688 762.964 27.151 762.484 27.5156C762.005 27.8802 761.766 28.3698 761.766 28.9844C761.766 29.5573 761.969 29.9896 762.375 30.2812C762.792 30.5729 763.406 30.8177 764.219 31.0156L767.453 31.75C769.266 32.1771 770.625 32.9115 771.531 33.9531C772.438 34.9948 772.891 36.2656 772.891 37.7656C772.891 39.1094 772.552 40.2812 771.875 41.2812C771.208 42.2812 770.26 43.0573 769.031 43.6094C767.812 44.151 766.391 44.4219 764.766 44.4219C762.339 44.4219 760.37 43.8333 758.859 42.6562C757.359 41.4792 756.536 39.8802 756.391 37.8594H761.188C761.25 38.6927 761.604 39.3385 762.25 39.7969C762.906 40.2552 763.766 40.4844 764.828 40.4844C765.807 40.4844 766.573 40.2865 767.125 39.8906C767.688 39.4948 767.969 38.9531 767.969 38.2656C767.969 37.7135 767.786 37.2865 767.422 36.9844C767.057 36.6719 766.547 36.4375 765.891 36.2812L762.5 35.4844C760.583 35.0365 759.177 34.3021 758.281 33.2812C757.396 32.2604 756.953 31.0208 756.953 29.5625ZM784.859 23.4844C787.099 23.4844 788.859 24.1042 790.141 25.3438C791.422 26.5833 792.062 28.2604 792.062 30.375C792.062 31.7188 791.776 32.9062 791.203 33.9375C790.63 34.9688 789.792 35.776 788.688 36.3594C787.594 36.9323 786.286 37.2188 784.766 37.2188H780.828V44H776.156V23.4844H784.859ZM783.906 33.2188C785.01 33.2188 785.823 32.9323 786.344 32.3594C786.875 31.776 787.141 31.0781 787.141 30.2656C787.141 29.5573 786.875 28.9271 786.344 28.375C785.823 27.8229 785.021 27.5469 783.938 27.5469H780.828V33.2188H783.906ZM799.078 23.4844H803.594L811.203 44H806.25L804.734 39.7812H797.828L796.297 44H791.422L799.078 23.4844ZM803.391 35.875L802.594 33.6562C802.406 33.0833 802.13 32.224 801.766 31.0781L801.344 29.7969C801.281 30.0781 801.115 30.599 800.844 31.3594C800.583 32.1094 800.302 32.875 800 33.6562L799.172 35.875H803.391ZM822.234 44.4219C820.141 44.4219 818.271 43.9792 816.625 43.0938C814.99 42.2083 813.714 40.9531 812.797 39.3281C811.88 37.7031 811.422 35.8281 811.422 33.7031C811.422 31.6094 811.875 29.7552 812.781 28.1406C813.688 26.5156 814.953 25.2604 816.578 24.375C818.214 23.4896 820.099 23.0469 822.234 23.0469C824.005 23.0469 825.63 23.3594 827.109 23.9844C828.589 24.6094 829.802 25.5052 830.75 26.6719C831.708 27.8385 832.292 29.1979 832.5 30.75H827.312C827.073 29.75 826.484 28.9427 825.547 28.3281C824.62 27.7031 823.495 27.3906 822.172 27.3906C820.38 27.3906 818.958 27.9688 817.906 29.125C816.865 30.2708 816.344 31.8177 816.344 33.7656C816.344 35.724 816.875 37.2708 817.938 38.4062C819.01 39.5312 820.422 40.0938 822.172 40.0938C823.453 40.0938 824.562 39.7812 825.5 39.1562C826.438 38.5208 827.042 37.6927 827.312 36.6719H832.5C832.312 38.1823 831.76 39.526 830.844 40.7031C829.927 41.8802 828.719 42.7969 827.219 43.4531C825.729 44.099 824.068 44.4219 822.234 44.4219ZM840.391 27.7188V31.6094H848.297V35.6875H840.391V39.7812H849.266V44H835.719V23.4844H849.266V27.7188H840.391ZM853.094 23.4844H861.359C864.068 23.4844 866.099 24.0521 867.453 25.1875C868.807 26.3125 869.484 27.9635 869.484 30.1406C869.484 31.5469 869.182 32.75 868.578 33.75C867.984 34.7396 867.115 35.5 865.969 36.0312L869.703 44H864.453L861.297 36.8281H857.766V44H853.094V23.4844ZM861.328 32.8281C862.411 32.8281 863.219 32.5781 863.75 32.0781C864.281 31.5781 864.547 30.9427 864.547 30.1719C864.547 29.4219 864.292 28.7969 863.781 28.2969C863.271 27.7969 862.464 27.5469 861.359 27.5469H857.766V32.8281H861.328ZM874.734 23.2969C875.568 23.2969 876.24 23.599 876.75 24.2031C877.26 24.7969 877.516 25.5833 877.516 26.5625C877.516 27.9479 877.047 29.1094 876.109 30.0469C875.172 30.9844 873.901 31.5312 872.297 31.6875V30.5C873.255 30.3958 873.99 30.0938 874.5 29.5938C875.021 29.0833 875.281 28.5 875.281 27.8438C875.021 27.9688 874.719 28.0312 874.375 28.0312C873.76 28.0312 873.24 27.8229 872.812 27.4062C872.385 26.9896 872.172 26.4427 872.172 25.7656C872.172 25.0365 872.406 24.4427 872.875 23.9844C873.344 23.526 873.964 23.2969 874.734 23.2969ZM880.391 29.5625C880.391 28.2396 880.708 27.0885 881.344 26.1094C881.99 25.1302 882.885 24.375 884.031 23.8438C885.188 23.3125 886.536 23.0469 888.078 23.0469C889.568 23.0469 890.896 23.3073 892.062 23.8281C893.229 24.349 894.135 25.0885 894.781 26.0469C895.427 27.0052 895.76 28.1042 895.781 29.3438H890.953C890.932 28.6354 890.63 28.0625 890.047 27.625C889.464 27.1875 888.724 26.9688 887.828 26.9688C887.036 26.9688 886.401 27.151 885.922 27.5156C885.443 27.8802 885.203 28.3698 885.203 28.9844C885.203 29.5573 885.406 29.9896 885.812 30.2812C886.229 30.5729 886.844 30.8177 887.656 31.0156L890.891 31.75C892.703 32.1771 894.062 32.9115 894.969 33.9531C895.875 34.9948 896.328 36.2656 896.328 37.7656C896.328 39.1094 895.99 40.2812 895.312 41.2812C894.646 42.2812 893.698 43.0573 892.469 43.6094C891.25 44.151 889.828 44.4219 888.203 44.4219C885.776 44.4219 883.807 43.8333 882.297 42.6562C880.797 41.4792 879.974 39.8802 879.828 37.8594H884.625C884.688 38.6927 885.042 39.3385 885.688 39.7969C886.344 40.2552 887.203 40.4844 888.266 40.4844C889.245 40.4844 890.01 40.2865 890.562 39.8906C891.125 39.4948 891.406 38.9531 891.406 38.2656C891.406 37.7135 891.224 37.2865 890.859 36.9844C890.495 36.6719 889.984 36.4375 889.328 36.2812L885.938 35.4844C884.021 35.0365 882.615 34.3021 881.719 33.2812C880.833 32.2604 880.391 31.0208 880.391 29.5625ZM907.219 23.4844H911.891V31.6406H919.859V23.4844H924.562V44H919.859V35.7188H911.891V44H907.219V23.4844ZM934.391 23.4844H938.906L946.516 44H941.562L940.047 39.7812H933.141L931.609 44H926.734L934.391 23.4844ZM938.703 35.875L937.906 33.6562C937.719 33.0833 937.443 32.224 937.078 31.0781L936.656 29.7969C936.594 30.0781 936.427 30.599 936.156 31.3594C935.896 32.1094 935.615 32.875 935.312 33.6562L934.484 35.875H938.703ZM957.547 44.4219C955.453 44.4219 953.583 43.9792 951.938 43.0938C950.302 42.2083 949.026 40.9531 948.109 39.3281C947.193 37.7031 946.734 35.8281 946.734 33.7031C946.734 31.6094 947.188 29.7552 948.094 28.1406C949 26.5156 950.266 25.2604 951.891 24.375C953.526 23.4896 955.411 23.0469 957.547 23.0469C959.318 23.0469 960.943 23.3594 962.422 23.9844C963.901 24.6094 965.115 25.5052 966.062 26.6719C967.021 27.8385 967.604 29.1979 967.812 30.75H962.625C962.385 29.75 961.797 28.9427 960.859 28.3281C959.932 27.7031 958.807 27.3906 957.484 27.3906C955.693 27.3906 954.271 27.9688 953.219 29.125C952.177 30.2708 951.656 31.8177 951.656 33.7656C951.656 35.724 952.188 37.2708 953.25 38.4062C954.323 39.5312 955.734 40.0938 957.484 40.0938C958.766 40.0938 959.875 39.7812 960.812 39.1562C961.75 38.5208 962.354 37.6927 962.625 36.6719H967.812C967.625 38.1823 967.073 39.526 966.156 40.7031C965.24 41.8802 964.031 42.7969 962.531 43.4531C961.042 44.099 959.38 44.4219 957.547 44.4219ZM978.75 36.3594L975.703 40.1562V44.0938H971.031V23.4844H975.703V32.8906L983.125 23.4844H988.953L981.922 32.3125L988.984 44H983.391L978.75 36.3594ZM1008.7 44.4219C1006.61 44.4219 1004.74 43.9792 1003.09 43.0938C1001.46 42.2083 1000.18 40.9531 999.266 39.3281C998.349 37.7031 997.891 35.8281 997.891 33.7031C997.891 31.6094 998.344 29.7552 999.25 28.1406C1000.16 26.5156 1001.42 25.2604 1003.05 24.375C1004.68 23.4896 1006.57 23.0469 1008.7 23.0469C1010.47 23.0469 1012.1 23.3594 1013.58 23.9844C1015.06 24.6094 1016.27 25.5052 1017.22 26.6719C1018.18 27.8385 1018.76 29.1979 1018.97 30.75H1013.78C1013.54 29.75 1012.95 28.9427 1012.02 28.3281C1011.09 27.7031 1009.96 27.3906 1008.64 27.3906C1006.85 27.3906 1005.43 27.9688 1004.38 29.125C1003.33 30.2708 1002.81 31.8177 1002.81 33.7656C1002.81 35.724 1003.34 37.2708 1004.41 38.4062C1005.48 39.5312 1006.89 40.0938 1008.64 40.0938C1009.92 40.0938 1011.03 39.7812 1011.97 39.1562C1012.91 38.5208 1013.51 37.6927 1013.78 36.6719H1018.97C1018.78 38.1823 1018.23 39.526 1017.31 40.7031C1016.4 41.8802 1015.19 42.7969 1013.69 43.4531C1012.2 44.099 1010.54 44.4219 1008.7 44.4219ZM1042.88 33.7344C1042.88 35.8177 1042.4 37.6719 1041.44 39.2969C1040.49 40.9219 1039.18 42.1823 1037.5 43.0781C1035.83 43.974 1033.93 44.4219 1031.8 44.4219C1029.68 44.4219 1027.79 43.974 1026.11 43.0781C1024.44 42.1823 1023.14 40.9271 1022.2 39.3125C1021.27 37.6979 1020.8 35.849 1020.8 33.7656C1020.8 31.6719 1021.27 29.8177 1022.2 28.2031C1023.14 26.5781 1024.44 25.3125 1026.11 24.4062C1027.79 23.5 1029.69 23.0469 1031.83 23.0469C1033.94 23.0469 1035.83 23.4948 1037.5 24.3906C1039.18 25.2865 1040.49 26.5469 1041.44 28.1719C1042.4 29.7865 1042.88 31.6406 1042.88 33.7344ZM1037.91 33.7344C1037.91 32.4948 1037.65 31.3958 1037.14 30.4375C1036.63 29.4688 1035.92 28.7188 1035 28.1875C1034.08 27.6562 1033.04 27.3906 1031.86 27.3906C1030.66 27.3906 1029.6 27.6562 1028.67 28.1875C1027.74 28.7188 1027.02 29.4688 1026.5 30.4375C1025.98 31.3958 1025.72 32.5052 1025.72 33.7656C1025.72 35.0052 1025.97 36.1042 1026.48 37.0625C1026.99 38.0208 1027.71 38.7604 1028.64 39.2812C1029.57 39.8021 1030.63 40.0625 1031.83 40.0625C1033.01 40.0625 1034.06 39.7969 1034.98 39.2656C1035.91 38.7344 1036.63 37.9896 1037.14 37.0312C1037.65 36.0625 1037.91 34.9635 1037.91 33.7344ZM1063.47 23.4844V44H1059.12L1050.7 31.5781V44H1046.09V23.4844H1050.45L1058.83 35.9375V23.4844H1063.47ZM1072.52 27.7188V31.9375H1080.08L1080.05 36H1072.52V44H1067.84V23.4844H1081.48V27.7188H1072.52ZM1098.78 39.9375H1105.53V44H1092.03V40.7656L1099.36 33.125C1099.89 32.5521 1100.31 32.0104 1100.61 31.5C1100.91 30.9792 1101.06 30.3906 1101.06 29.7344C1101.06 28.9427 1100.82 28.3229 1100.34 27.875C1099.88 27.4271 1099.24 27.2031 1098.44 27.2031C1097.54 27.2031 1096.84 27.474 1096.34 28.0156C1095.85 28.5573 1095.64 29.2656 1095.7 30.1406H1091.27C1091.18 28.7552 1091.45 27.526 1092.08 26.4531C1092.7 25.3698 1093.59 24.5365 1094.75 23.9531C1095.91 23.3698 1097.22 23.0781 1098.69 23.0781C1100.05 23.0781 1101.26 23.3385 1102.31 23.8594C1103.38 24.3802 1104.19 25.1146 1104.77 26.0625C1105.34 27.0104 1105.62 28.1146 1105.62 29.375C1105.62 30.6979 1105.36 31.8281 1104.83 32.7656C1104.3 33.7031 1103.61 34.6302 1102.78 35.5469L1098.78 39.9375ZM1116.08 44.3594C1114.39 44.3594 1112.93 43.9323 1111.69 43.0781C1110.46 42.224 1109.52 40.9948 1108.86 39.3906C1108.21 37.7865 1107.89 35.9115 1107.89 33.7656C1107.89 31.5885 1108.21 29.6927 1108.86 28.0781C1109.52 26.4635 1110.45 25.2292 1111.67 24.375C1112.9 23.5104 1114.37 23.0781 1116.08 23.0781C1117.77 23.0781 1119.23 23.5104 1120.47 24.375C1121.72 25.2292 1122.68 26.4635 1123.34 28.0781C1124.02 29.6927 1124.36 31.5885 1124.36 33.7656C1124.36 35.9219 1124.02 37.8021 1123.34 39.4062C1122.68 41 1121.72 42.224 1120.47 43.0781C1119.23 43.9323 1117.77 44.3594 1116.08 44.3594ZM1116.11 40.3125C1117.31 40.3125 1118.21 39.75 1118.81 38.625C1119.42 37.4896 1119.72 35.8698 1119.72 33.7656C1119.72 31.651 1119.42 30.026 1118.81 28.8906C1118.21 27.7448 1117.31 27.1719 1116.11 27.1719C1114.93 27.1719 1114.03 27.7396 1113.41 28.875C1112.79 30 1112.48 31.6302 1112.48 33.7656C1112.48 35.8594 1112.79 37.474 1113.41 38.6094C1114.03 39.7448 1114.93 40.3125 1116.11 40.3125ZM1134 39.9375H1140.75V44H1127.25V40.7656L1134.58 33.125C1135.11 32.5521 1135.53 32.0104 1135.83 31.5C1136.13 30.9792 1136.28 30.3906 1136.28 29.7344C1136.28 28.9427 1136.04 28.3229 1135.56 27.875C1135.09 27.4271 1134.46 27.2031 1133.66 27.2031C1132.76 27.2031 1132.06 27.474 1131.56 28.0156C1131.07 28.5573 1130.86 29.2656 1130.92 30.1406H1126.48C1126.4 28.7552 1126.67 27.526 1127.3 26.4531C1127.92 25.3698 1128.81 24.5365 1129.97 23.9531C1131.12 23.3698 1132.44 23.0781 1133.91 23.0781C1135.27 23.0781 1136.48 23.3385 1137.53 23.8594C1138.59 24.3802 1139.41 25.1146 1139.98 26.0625C1140.56 27.0104 1140.84 28.1146 1140.84 29.375C1140.84 30.6979 1140.58 31.8281 1140.05 32.7656C1139.52 33.7031 1138.83 34.6302 1138 35.5469L1134 39.9375ZM1153.28 31.3281C1154.9 31.5677 1156.18 32.2448 1157.14 33.3594C1158.11 34.4635 1158.59 35.8229 1158.59 37.4375C1158.59 38.7812 1158.26 39.974 1157.59 41.0156C1156.94 42.0469 1156.02 42.8542 1154.84 43.4375C1153.67 44.0208 1152.33 44.3125 1150.84 44.3125C1149.38 44.3125 1148.06 44.026 1146.89 43.4531C1145.72 42.8802 1144.82 42.0625 1144.19 41C1143.55 39.9271 1143.24 38.6875 1143.27 37.2812H1147.73C1147.73 38.1771 1148.03 38.9062 1148.61 39.4688C1149.2 40.0312 1149.97 40.3125 1150.91 40.3125C1151.82 40.3125 1152.57 40.0469 1153.14 39.5156C1153.72 38.9844 1154.02 38.2604 1154.02 37.3438C1154.02 36.4688 1153.73 35.7812 1153.16 35.2812C1152.59 34.7812 1151.84 34.5104 1150.91 34.4688C1150.65 34.4479 1149.92 34.4375 1148.73 34.4375H1147.52V31.4531L1151.67 27.3906H1144.41V23.4844H1157.47V27.1719L1153.28 31.3281Z" fill="#FEFEFE"/>
<path d="M1194.4 41.24L1202 33.6333C1202.9 32.735 1202.9 31.265 1202 30.3667L1194.4 22.76" stroke="#FEFEFE" stroke-width="3" stroke-miterlimit="10" stroke-linecap="round" stroke-linejoin="round"/>
<path d="M1202.4 41.24L1210 33.6333C1210.9 32.735 1210.9 31.265 1210 30.3667L1202.4 22.76" stroke="#FEFEFE" stroke-width="3" stroke-miterlimit="10" stroke-linecap="round" stroke-linejoin="round"/>
<path d="M1185.6 41.24L1178 33.6333C1177.1 32.735 1177.1 31.265 1178 30.3667L1185.6 22.76" stroke="#FEFEFE" stroke-width="3" stroke-miterlimit="10" stroke-linecap="round" stroke-linejoin="round"/>
<path d="M1177.6 41.24L1170 33.6333C1169.1 32.735 1169.1 31.265 1170 30.3667L1177.6 22.76" stroke="#FEFEFE" stroke-width="3" stroke-miterlimit="10" stroke-linecap="round" stroke-linejoin="round"/>
<path d="M1221.84 29.5625C1221.84 28.2396 1222.16 27.0885 1222.8 26.1094C1223.44 25.1302 1224.34 24.375 1225.48 23.8438C1226.64 23.3125 1227.99 23.0469 1229.53 23.0469C1231.02 23.0469 1232.35 23.3073 1233.52 23.8281C1234.68 24.349 1235.59 25.0885 1236.23 26.0469C1236.88 27.0052 1237.21 28.1042 1237.23 29.3438H1232.41C1232.39 28.6354 1232.08 28.0625 1231.5 27.625C1230.92 27.1875 1230.18 26.9688 1229.28 26.9688C1228.49 26.9688 1227.85 27.151 1227.38 27.5156C1226.9 27.8802 1226.66 28.3698 1226.66 28.9844C1226.66 29.5573 1226.86 29.9896 1227.27 30.2812C1227.68 30.5729 1228.3 30.8177 1229.11 31.0156L1232.34 31.75C1234.16 32.1771 1235.52 32.9115 1236.42 33.9531C1237.33 34.9948 1237.78 36.2656 1237.78 37.7656C1237.78 39.1094 1237.44 40.2812 1236.77 41.2812C1236.1 42.2812 1235.15 43.0573 1233.92 43.6094C1232.7 44.151 1231.28 44.4219 1229.66 44.4219C1227.23 44.4219 1225.26 43.8333 1223.75 42.6562C1222.25 41.4792 1221.43 39.8802 1221.28 37.8594H1226.08C1226.14 38.6927 1226.49 39.3385 1227.14 39.7969C1227.8 40.2552 1228.66 40.4844 1229.72 40.4844C1230.7 40.4844 1231.46 40.2865 1232.02 39.8906C1232.58 39.4948 1232.86 38.9531 1232.86 38.2656C1232.86 37.7135 1232.68 37.2865 1232.31 36.9844C1231.95 36.6719 1231.44 36.4375 1230.78 36.2812L1227.39 35.4844C1225.47 35.0365 1224.07 34.3021 1223.17 33.2812C1222.29 32.2604 1221.84 31.0208 1221.84 29.5625ZM1245.72 27.7188V31.6094H1253.62V35.6875H1245.72V39.7812H1254.59V44H1241.05V23.4844H1254.59V27.7188H1245.72ZM1263.09 27.7188V31.6094H1271V35.6875H1263.09V39.7812H1271.97V44H1258.42V23.4844H1271.97V27.7188H1263.09ZM1282.81 29.5625C1282.81 28.2396 1283.13 27.0885 1283.77 26.1094C1284.41 25.1302 1285.31 24.375 1286.45 23.8438C1287.61 23.3125 1288.96 23.0469 1290.5 23.0469C1291.99 23.0469 1293.32 23.3073 1294.48 23.8281C1295.65 24.349 1296.56 25.0885 1297.2 26.0469C1297.85 27.0052 1298.18 28.1042 1298.2 29.3438H1293.38C1293.35 28.6354 1293.05 28.0625 1292.47 27.625C1291.89 27.1875 1291.15 26.9688 1290.25 26.9688C1289.46 26.9688 1288.82 27.151 1288.34 27.5156C1287.86 27.8802 1287.62 28.3698 1287.62 28.9844C1287.62 29.5573 1287.83 29.9896 1288.23 30.2812C1288.65 30.5729 1289.27 30.8177 1290.08 31.0156L1293.31 31.75C1295.12 32.1771 1296.48 32.9115 1297.39 33.9531C1298.3 34.9948 1298.75 36.2656 1298.75 37.7656C1298.75 39.1094 1298.41 40.2812 1297.73 41.2812C1297.07 42.2812 1296.12 43.0573 1294.89 43.6094C1293.67 44.151 1292.25 44.4219 1290.62 44.4219C1288.2 44.4219 1286.23 43.8333 1284.72 42.6562C1283.22 41.4792 1282.4 39.8802 1282.25 37.8594H1287.05C1287.11 38.6927 1287.46 39.3385 1288.11 39.7969C1288.77 40.2552 1289.62 40.4844 1290.69 40.4844C1291.67 40.4844 1292.43 40.2865 1292.98 39.8906C1293.55 39.4948 1293.83 38.9531 1293.83 38.2656C1293.83 37.7135 1293.65 37.2865 1293.28 36.9844C1292.92 36.6719 1292.41 36.4375 1291.75 36.2812L1288.36 35.4844C1286.44 35.0365 1285.04 34.3021 1284.14 33.2812C1283.26 32.2604 1282.81 31.0208 1282.81 29.5625ZM1322.86 33.7344C1322.86 35.8177 1322.38 37.6719 1321.42 39.2969C1320.47 40.9219 1319.16 42.1823 1317.48 43.0781C1315.82 43.974 1313.92 44.4219 1311.78 44.4219C1309.67 44.4219 1307.77 43.974 1306.09 43.0781C1304.43 42.1823 1303.12 40.9271 1302.19 39.3125C1301.25 37.6979 1300.78 35.849 1300.78 33.7656C1300.78 31.6719 1301.25 29.8177 1302.19 28.2031C1303.12 26.5781 1304.43 25.3125 1306.09 24.4062C1307.77 23.5 1309.68 23.0469 1311.81 23.0469C1313.93 23.0469 1315.82 23.4948 1317.48 24.3906C1319.16 25.2865 1320.47 26.5469 1321.42 28.1719C1322.38 29.7865 1322.86 31.6406 1322.86 33.7344ZM1317.89 33.7344C1317.89 32.4948 1317.64 31.3958 1317.12 30.4375C1316.61 29.4688 1315.9 28.7188 1314.98 28.1875C1314.07 27.6562 1313.02 27.3906 1311.84 27.3906C1310.65 27.3906 1309.58 27.6562 1308.66 28.1875C1307.73 28.7188 1307.01 29.4688 1306.48 30.4375C1305.96 31.3958 1305.7 32.5052 1305.7 33.7656C1305.7 35.0052 1305.96 36.1042 1306.47 37.0625C1306.98 38.0208 1307.7 38.7604 1308.62 39.2812C1309.55 39.8021 1310.61 40.0625 1311.81 40.0625C1312.99 40.0625 1314.04 39.7969 1314.97 39.2656C1315.9 38.7344 1316.61 37.9896 1317.12 37.0312C1317.64 36.0625 1317.89 34.9635 1317.89 33.7344ZM1346.98 33.7344C1346.98 35.8177 1346.51 37.6719 1345.55 39.2969C1344.6 40.9219 1343.29 42.1823 1341.61 43.0781C1339.94 43.974 1338.04 44.4219 1335.91 44.4219C1333.79 44.4219 1331.9 43.974 1330.22 43.0781C1328.55 42.1823 1327.25 40.9271 1326.31 39.3125C1325.38 37.6979 1324.91 35.849 1324.91 33.7656C1324.91 31.6719 1325.38 29.8177 1326.31 28.2031C1327.25 26.5781 1328.55 25.3125 1330.22 24.4062C1331.9 23.5 1333.8 23.0469 1335.94 23.0469C1338.05 23.0469 1339.94 23.4948 1341.61 24.3906C1343.29 25.2865 1344.6 26.5469 1345.55 28.1719C1346.51 29.7865 1346.98 31.6406 1346.98 33.7344ZM1342.02 33.7344C1342.02 32.4948 1341.76 31.3958 1341.25 30.4375C1340.74 29.4688 1340.03 28.7188 1339.11 28.1875C1338.19 27.6562 1337.15 27.3906 1335.97 27.3906C1334.77 27.3906 1333.71 27.6562 1332.78 28.1875C1331.85 28.7188 1331.13 29.4688 1330.61 30.4375C1330.09 31.3958 1329.83 32.5052 1329.83 33.7656C1329.83 35.0052 1330.08 36.1042 1330.59 37.0625C1331.1 38.0208 1331.82 38.7604 1332.75 39.2812C1333.68 39.8021 1334.74 40.0625 1335.94 40.0625C1337.11 40.0625 1338.17 39.7969 1339.09 39.2656C1340.02 38.7344 1340.74 37.9896 1341.25 37.0312C1341.76 36.0625 1342.02 34.9635 1342.02 33.7344ZM1367.58 23.4844V44H1363.23L1354.81 31.5781V44H1350.2V23.4844H1354.56L1362.94 35.9375V23.4844H1367.58Z" fill="#FEFEFE"/>
<path d="M1404.39 41.24L1412 33.6333C1412.9 32.735 1412.9 31.265 1412 30.3667L1404.39 22.76" stroke="#FEFEFE" stroke-width="3" stroke-miterlimit="10" stroke-linecap="round" stroke-linejoin="round"/>
<path d="M1412.39 41.24L1420 33.6333C1420.9 32.735 1420.9 31.265 1420 30.3667L1412.39 22.76" stroke="#FEFEFE" stroke-width="3" stroke-miterlimit="10" stroke-linecap="round" stroke-linejoin="round"/>
<path d="M1395.61 41.24L1388 33.6333C1387.1 32.735 1387.1 31.265 1388 30.3667L1395.61 22.76" stroke="#FEFEFE" stroke-width="3" stroke-miterlimit="10" stroke-linecap="round" stroke-linejoin="round"/>
<path d="M1387.61 41.24L1380 33.6333C1379.1 32.735 1379.1 31.265 1380 30.3667L1387.61 22.76" stroke="#FEFEFE" stroke-width="3" stroke-miterlimit="10" stroke-linecap="round" stroke-linejoin="round"/>
<path d="M1441.86 44.4219C1439.77 44.4219 1437.9 43.9792 1436.25 43.0938C1434.61 42.2083 1433.34 40.9531 1432.42 39.3281C1431.51 37.7031 1431.05 35.8281 1431.05 33.7031C1431.05 31.6094 1431.5 29.7552 1432.41 28.1406C1433.31 26.5156 1434.58 25.2604 1436.2 24.375C1437.84 23.4896 1439.72 23.0469 1441.86 23.0469C1443.63 23.0469 1445.26 23.3594 1446.73 23.9844C1448.21 24.6094 1449.43 25.5052 1450.38 26.6719C1451.33 27.8385 1451.92 29.1979 1452.12 30.75H1446.94C1446.7 29.75 1446.11 28.9427 1445.17 28.3281C1444.24 27.7031 1443.12 27.3906 1441.8 27.3906C1440.01 27.3906 1438.58 27.9688 1437.53 29.125C1436.49 30.2708 1435.97 31.8177 1435.97 33.7656C1435.97 35.724 1436.5 37.2708 1437.56 38.4062C1438.64 39.5312 1440.05 40.0938 1441.8 40.0938C1443.08 40.0938 1444.19 39.7812 1445.12 39.1562C1446.06 38.5208 1446.67 37.6927 1446.94 36.6719H1452.12C1451.94 38.1823 1451.39 39.526 1450.47 40.7031C1449.55 41.8802 1448.34 42.7969 1446.84 43.4531C1445.35 44.099 1443.69 44.4219 1441.86 44.4219ZM1476.03 33.7344C1476.03 35.8177 1475.55 37.6719 1474.59 39.2969C1473.65 40.9219 1472.33 42.1823 1470.66 43.0781C1468.99 43.974 1467.09 44.4219 1464.95 44.4219C1462.84 44.4219 1460.94 43.974 1459.27 43.0781C1457.6 42.1823 1456.3 40.9271 1455.36 39.3125C1454.42 37.6979 1453.95 35.849 1453.95 33.7656C1453.95 31.6719 1454.42 29.8177 1455.36 28.2031C1456.3 26.5781 1457.6 25.3125 1459.27 24.4062C1460.94 23.5 1462.85 23.0469 1464.98 23.0469C1467.1 23.0469 1468.99 23.4948 1470.66 24.3906C1472.33 25.2865 1473.65 26.5469 1474.59 28.1719C1475.55 29.7865 1476.03 31.6406 1476.03 33.7344ZM1471.06 33.7344C1471.06 32.4948 1470.81 31.3958 1470.3 30.4375C1469.79 29.4688 1469.07 28.7188 1468.16 28.1875C1467.24 27.6562 1466.19 27.3906 1465.02 27.3906C1463.82 27.3906 1462.76 27.6562 1461.83 28.1875C1460.9 28.7188 1460.18 29.4688 1459.66 30.4375C1459.14 31.3958 1458.88 32.5052 1458.88 33.7656C1458.88 35.0052 1459.13 36.1042 1459.64 37.0625C1460.15 38.0208 1460.87 38.7604 1461.8 39.2812C1462.72 39.8021 1463.79 40.0625 1464.98 40.0625C1466.16 40.0625 1467.21 39.7969 1468.14 39.2656C1469.07 38.7344 1469.79 37.9896 1470.3 37.0312C1470.81 36.0625 1471.06 34.9635 1471.06 33.7344ZM1499.98 23.4844V44H1495.45V41.4375C1495.45 38.6042 1495.57 36.0781 1495.8 33.8594L1491.45 43.4219H1487.31L1483.31 34.1094C1483.57 36.8385 1483.7 39.2812 1483.7 41.4375V44H1479.25V23.4844H1483.34L1489.53 38.2656L1495.86 23.4844H1499.98ZM1504.38 44V23.4844H1509.05V44H1504.38ZM1530.56 23.4844V44H1526.22L1517.8 31.5781V44H1513.19V23.4844H1517.55L1525.92 35.9375V23.4844H1530.56ZM1554.81 32.6406V34.8438C1554.81 36.7396 1554.37 38.4115 1553.48 39.8594C1552.6 41.2969 1551.36 42.4167 1549.77 43.2188C1548.18 44.0208 1546.38 44.4219 1544.34 44.4219C1542.23 44.4219 1540.37 43.9844 1538.77 43.1094C1537.17 42.2344 1535.94 41.0052 1535.06 39.4219C1534.2 37.8281 1533.77 35.9844 1533.77 33.8906C1533.77 31.776 1534.22 29.901 1535.12 28.2656C1536.03 26.6198 1537.3 25.3385 1538.92 24.4219C1540.56 23.5052 1542.43 23.0469 1544.55 23.0469C1546.3 23.0469 1547.88 23.3542 1549.28 23.9688C1550.69 24.5833 1551.84 25.4479 1552.73 26.5625C1553.63 27.6667 1554.21 28.9479 1554.47 30.4062H1549.47C1549.12 29.4688 1548.51 28.7344 1547.61 28.2031C1546.71 27.6615 1545.66 27.3906 1544.45 27.3906C1542.64 27.3906 1541.21 27.974 1540.16 29.1406C1539.11 30.2969 1538.59 31.8594 1538.59 33.8281C1538.59 35.7865 1539.12 37.3229 1540.17 38.4375C1541.23 39.5417 1542.65 40.0938 1544.42 40.0938C1545.79 40.0938 1546.95 39.7865 1547.92 39.1719C1548.89 38.5469 1549.52 37.6927 1549.8 36.6094H1544.28V32.6406H1554.81ZM1565.05 29.5625C1565.05 28.2396 1565.36 27.0885 1566 26.1094C1566.65 25.1302 1567.54 24.375 1568.69 23.8438C1569.84 23.3125 1571.19 23.0469 1572.73 23.0469C1574.22 23.0469 1575.55 23.3073 1576.72 23.8281C1577.89 24.349 1578.79 25.0885 1579.44 26.0469C1580.08 27.0052 1580.42 28.1042 1580.44 29.3438H1575.61C1575.59 28.6354 1575.29 28.0625 1574.7 27.625C1574.12 27.1875 1573.38 26.9688 1572.48 26.9688C1571.69 26.9688 1571.06 27.151 1570.58 27.5156C1570.1 27.8802 1569.86 28.3698 1569.86 28.9844C1569.86 29.5573 1570.06 29.9896 1570.47 30.2812C1570.89 30.5729 1571.5 30.8177 1572.31 31.0156L1575.55 31.75C1577.36 32.1771 1578.72 32.9115 1579.62 33.9531C1580.53 34.9948 1580.98 36.2656 1580.98 37.7656C1580.98 39.1094 1580.65 40.2812 1579.97 41.2812C1579.3 42.2812 1578.35 43.0573 1577.12 43.6094C1575.91 44.151 1574.48 44.4219 1572.86 44.4219C1570.43 44.4219 1568.46 43.8333 1566.95 42.6562C1565.45 41.4792 1564.63 39.8802 1564.48 37.8594H1569.28C1569.34 38.6927 1569.7 39.3385 1570.34 39.7969C1571 40.2552 1571.86 40.4844 1572.92 40.4844C1573.9 40.4844 1574.67 40.2865 1575.22 39.8906C1575.78 39.4948 1576.06 38.9531 1576.06 38.2656C1576.06 37.7135 1575.88 37.2865 1575.52 36.9844C1575.15 36.6719 1574.64 36.4375 1573.98 36.2812L1570.59 35.4844C1568.68 35.0365 1567.27 34.3021 1566.38 33.2812C1565.49 32.2604 1565.05 31.0208 1565.05 29.5625ZM1605.09 33.7344C1605.09 35.8177 1604.61 37.6719 1603.66 39.2969C1602.71 40.9219 1601.4 42.1823 1599.72 43.0781C1598.05 43.974 1596.15 44.4219 1594.02 44.4219C1591.9 44.4219 1590.01 43.974 1588.33 43.0781C1586.66 42.1823 1585.36 40.9271 1584.42 39.3125C1583.48 37.6979 1583.02 35.849 1583.02 33.7656C1583.02 31.6719 1583.48 29.8177 1584.42 28.2031C1585.36 26.5781 1586.66 25.3125 1588.33 24.4062C1590.01 23.5 1591.91 23.0469 1594.05 23.0469C1596.16 23.0469 1598.05 23.4948 1599.72 24.3906C1601.4 25.2865 1602.71 26.5469 1603.66 28.1719C1604.61 29.7865 1605.09 31.6406 1605.09 33.7344ZM1600.12 33.7344C1600.12 32.4948 1599.87 31.3958 1599.36 30.4375C1598.85 29.4688 1598.14 28.7188 1597.22 28.1875C1596.3 27.6562 1595.26 27.3906 1594.08 27.3906C1592.88 27.3906 1591.82 27.6562 1590.89 28.1875C1589.96 28.7188 1589.24 29.4688 1588.72 30.4375C1588.2 31.3958 1587.94 32.5052 1587.94 33.7656C1587.94 35.0052 1588.19 36.1042 1588.7 37.0625C1589.21 38.0208 1589.93 38.7604 1590.86 39.2812C1591.79 39.8021 1592.85 40.0625 1594.05 40.0625C1595.22 40.0625 1596.28 39.7969 1597.2 39.2656C1598.13 38.7344 1598.85 37.9896 1599.36 37.0312C1599.87 36.0625 1600.12 34.9635 1600.12 33.7344ZM1629.22 33.7344C1629.22 35.8177 1628.74 37.6719 1627.78 39.2969C1626.83 40.9219 1625.52 42.1823 1623.84 43.0781C1622.18 43.974 1620.28 44.4219 1618.14 44.4219C1616.03 44.4219 1614.13 43.974 1612.45 43.0781C1610.79 42.1823 1609.48 40.9271 1608.55 39.3125C1607.61 37.6979 1607.14 35.849 1607.14 33.7656C1607.14 31.6719 1607.61 29.8177 1608.55 28.2031C1609.48 26.5781 1610.79 25.3125 1612.45 24.4062C1614.13 23.5 1616.04 23.0469 1618.17 23.0469C1620.29 23.0469 1622.18 23.4948 1623.84 24.3906C1625.52 25.2865 1626.83 26.5469 1627.78 28.1719C1628.74 29.7865 1629.22 31.6406 1629.22 33.7344ZM1624.25 33.7344C1624.25 32.4948 1623.99 31.3958 1623.48 30.4375C1622.97 29.4688 1622.26 28.7188 1621.34 28.1875C1620.43 27.6562 1619.38 27.3906 1618.2 27.3906C1617.01 27.3906 1615.94 27.6562 1615.02 28.1875C1614.09 28.7188 1613.36 29.4688 1612.84 30.4375C1612.32 31.3958 1612.06 32.5052 1612.06 33.7656C1612.06 35.0052 1612.32 36.1042 1612.83 37.0625C1613.34 38.0208 1614.06 38.7604 1614.98 39.2812C1615.91 39.8021 1616.97 40.0625 1618.17 40.0625C1619.35 40.0625 1620.4 39.7969 1621.33 39.2656C1622.26 38.7344 1622.97 37.9896 1623.48 37.0312C1623.99 36.0625 1624.25 34.9635 1624.25 33.7344ZM1649.81 23.4844V44H1645.47L1637.05 31.5781V44H1632.44V23.4844H1636.8L1645.17 35.9375V23.4844H1649.81Z" fill="#FEFEFE"/>
</svg>
