<svg width="937" height="127" viewBox="0 0 937 127" fill="none" xmlns="http://www.w3.org/2000/svg">
<path fill-rule="evenodd" clip-rule="evenodd" d="M87.6883 8.11458C86.976 8.31364 86.9513 8.53105 86.9935 14.2111C87.0154 17.1142 87.0869 19.5437 87.1527 19.6094C87.2185 19.6754 88.5584 19.7713 90.1311 19.8223C92.2296 19.8904 93.1595 19.9781 93.6281 20.1531C93.9793 20.284 94.8292 20.4558 95.5166 20.5345C96.8209 20.6842 97.4718 20.8339 97.9603 21.0966C98.1199 21.1822 98.6989 21.3246 99.2475 21.4127C99.7961 21.5004 100.446 21.6974 100.692 21.85C100.937 22.0025 101.43 22.173 101.786 22.2281C102.141 22.2836 102.831 22.5165 103.319 22.7453C103.806 22.9746 104.284 23.1622 104.382 23.1622C104.479 23.1622 104.773 23.3262 105.035 23.5269C105.297 23.7276 105.583 23.8919 105.67 23.8919C105.758 23.8919 106.274 24.1212 106.819 24.4018C107.363 24.6825 107.88 24.9121 107.967 24.9125C108.055 24.9129 108.24 25.0398 108.38 25.1948C108.519 25.3494 108.885 25.5187 109.193 25.5709C109.501 25.6231 109.833 25.763 109.931 25.8817C110.029 26.0004 110.343 26.1958 110.63 26.3161C110.916 26.4361 111.313 26.6845 111.513 26.8676C111.823 27.1531 113.488 28.3165 114.25 28.7807C114.382 28.861 114.691 29.0911 114.938 29.2918C115.184 29.4921 115.633 29.8535 115.936 30.0941C117.803 31.5781 121.736 35.3108 122.555 36.3767C122.996 36.9502 124.16 38.4187 124.335 38.6234C124.434 38.7393 124.646 39.0473 124.806 39.3075C124.966 39.5682 125.416 40.2616 125.807 40.8486C126.198 41.4351 126.662 42.1453 126.839 42.4264C127.015 42.7074 127.365 43.2601 127.617 43.6554C127.869 44.0502 128.075 44.4785 128.075 44.6066C128.075 44.7347 128.238 45.081 128.438 45.3763C128.638 45.6716 128.801 45.9735 128.801 46.0469C128.801 46.1199 128.975 46.4356 129.187 46.7477C129.4 47.0597 129.656 47.5782 129.757 47.8992C129.858 48.2202 130.076 48.7587 130.242 49.096C130.408 49.4333 130.544 49.7866 130.544 49.8816C130.544 49.9763 130.678 50.2704 130.84 50.5347C131.003 50.7994 131.208 51.4313 131.296 51.9387C131.383 52.4461 131.579 53.1086 131.73 53.4112C131.882 53.7135 132.061 54.4033 132.129 54.9433C132.197 55.4838 132.389 56.1887 132.556 56.5097C132.722 56.8307 132.963 57.7501 133.091 58.5529C133.219 59.3556 133.418 60.4598 133.533 61.0068C133.779 62.1832 133.824 72.6999 133.587 73.8036C133.51 74.1646 133.29 75.3798 133.099 76.5036C132.907 77.6273 132.641 78.8037 132.507 79.1178C132.374 79.4319 132.2 80.0874 132.122 80.5741C132.044 81.0607 131.859 81.657 131.711 81.8997C131.564 82.1425 131.398 82.7351 131.343 83.2169C131.289 83.6986 131.096 84.388 130.916 84.7494C130.735 85.1104 130.541 85.5986 130.484 85.834C130.427 86.0694 130.221 86.452 130.027 86.6845C129.832 86.9166 129.673 87.2278 129.673 87.3759C129.673 87.6928 128.72 89.6548 128.361 90.0762C128.225 90.2365 128.067 90.5649 128.012 90.806C127.957 91.0466 127.761 91.4733 127.578 91.7543C127.394 92.0354 127.066 92.5608 126.849 92.9218C126.632 93.2832 126.116 94.0978 125.703 94.732C125.29 95.3663 124.886 95.9941 124.806 96.1267C123.681 97.9945 117.355 104.42 114.994 106.091C114.797 106.231 114.408 106.509 114.128 106.711C113.848 106.912 113.39 107.192 113.111 107.333C112.831 107.474 112.241 107.86 111.8 108.19C111.359 108.52 110.726 108.929 110.393 109.099C110.061 109.27 109.751 109.471 109.705 109.546C109.658 109.622 109.376 109.763 109.077 109.858C108.779 109.954 108.404 110.15 108.244 110.294C108.084 110.437 107.683 110.627 107.353 110.715C107.023 110.803 106.674 110.97 106.578 111.085C106.483 111.201 106.172 111.373 105.888 111.467C105.604 111.561 105.154 111.787 104.888 111.968C104.622 112.149 104.092 112.344 103.709 112.4C103.327 112.457 102.818 112.622 102.578 112.767C102.338 112.912 101.913 113.076 101.634 113.133C101.354 113.189 100.798 113.386 100.399 113.571C99.9995 113.756 99.1923 113.981 98.6051 114.072C98.0183 114.162 97.3618 114.328 97.1466 114.44C96.7255 114.658 94.8576 114.959 93.9196 114.959C93.6041 114.959 92.9715 115.095 92.5138 115.261C91.8694 115.495 91.1909 115.582 89.5029 115.645C88.3043 115.689 87.242 115.791 87.1421 115.871C86.9107 116.056 86.8786 125.961 87.1076 126.567L87.255 126.956L90.9278 126.904C94.1263 126.86 94.6509 126.82 94.9888 126.598C95.2353 126.436 95.9219 126.284 96.8708 126.183C97.6927 126.095 98.6457 125.9 98.9892 125.75C99.3324 125.6 100.019 125.404 100.515 125.316C101.01 125.227 101.562 125.059 101.741 124.943C101.919 124.828 102.541 124.639 103.121 124.525C103.701 124.411 104.435 124.182 104.752 124.016C105.068 123.851 105.527 123.715 105.771 123.715C106.016 123.715 106.443 123.561 106.721 123.372C107 123.183 107.567 122.948 107.983 122.849C108.398 122.749 108.812 122.578 108.903 122.469C108.993 122.359 109.413 122.169 109.835 122.045C110.258 121.922 110.682 121.726 110.777 121.61C110.873 121.494 111.16 121.356 111.414 121.303C111.668 121.251 112.107 121.058 112.39 120.875C112.673 120.692 113.107 120.497 113.356 120.442C113.604 120.387 114.06 120.151 114.367 119.917C114.675 119.683 115 119.489 115.091 119.487C115.181 119.485 115.343 119.376 115.452 119.244C115.56 119.113 115.912 118.884 116.232 118.734C116.553 118.586 117.11 118.232 117.469 117.949C117.829 117.667 118.434 117.296 118.813 117.126C119.193 116.956 119.503 116.762 119.503 116.694C119.503 116.627 119.693 116.473 119.925 116.353C120.157 116.232 120.435 116.05 120.543 115.948C120.65 115.845 121.13 115.468 121.61 115.109C122.697 114.296 124.105 113.13 124.6 112.635C124.807 112.428 125.722 111.587 126.634 110.765C128.348 109.221 129.696 107.792 131.201 105.928C131.678 105.335 132.339 104.547 132.667 104.176C133.185 103.593 133.735 102.829 134.245 101.985C134.604 101.392 135.551 99.9924 135.638 99.9271C135.73 99.8586 135.988 99.4099 136.749 98.0034C136.925 97.6771 137.165 97.3035 137.282 97.1729C137.398 97.042 137.798 96.3441 138.171 95.6217C138.543 94.8993 138.936 94.1442 139.045 93.9436C139.391 93.3019 139.951 91.9917 140.136 91.3897C140.234 91.0686 140.397 90.7072 140.498 90.5869C140.598 90.4666 140.791 89.9738 140.926 89.4925C141.062 89.0108 141.259 88.4817 141.364 88.3165C141.469 88.1517 141.654 87.6594 141.774 87.2221C141.894 86.7852 142.123 86.0665 142.283 85.6247C143.092 83.3898 143.759 80.7278 144.591 76.4306L145 74.3143L144.997 67.6741C144.995 61.8206 144.965 60.9473 144.748 60.304C144.613 59.9026 144.399 58.9175 144.274 58.1148C144.149 57.3124 143.921 56.196 143.768 55.6339C143.615 55.0722 143.427 54.1438 143.351 53.5711C143.275 52.998 143.11 52.3735 142.986 52.1826C142.862 51.9917 142.684 51.4753 142.591 51.0348C142.498 50.5946 142.335 50.0619 142.227 49.851C142.121 49.6406 141.907 49.0165 141.753 48.4646C141.598 47.9127 141.23 46.9031 140.934 46.2207C140.638 45.5387 140.282 44.6192 140.144 44.1775C140.004 43.7361 139.814 43.2434 139.721 43.0831C139.628 42.9224 139.424 42.4957 139.268 42.1343C139.112 41.7733 138.888 41.3136 138.77 41.1129C138.652 40.9122 138.279 40.1706 137.94 39.4645C137.602 38.7589 137.265 38.1442 137.191 38.0985C137.118 38.0532 136.929 37.744 136.772 37.4116C136.277 36.3669 135.035 34.3445 134.743 34.1075C134.693 34.0676 134.551 33.8375 134.426 33.5968C134.301 33.3562 133.867 32.7484 133.461 32.2463C133.055 31.7441 132.724 31.2799 132.724 31.2143C132.724 31.149 132.577 30.9597 132.397 30.7937C132.217 30.6277 131.841 30.2149 131.562 29.8763C129.202 27.0198 122.843 20.8269 122.27 20.8269C122.17 20.8269 121.87 20.6067 120.665 19.6469C119.994 19.1121 119.288 18.6418 118.838 18.4285C118.592 18.3122 118.303 18.1103 118.195 17.9802C118.087 17.8496 117.798 17.6396 117.553 17.5135C117.307 17.3871 117.073 17.2362 117.034 17.1778C116.993 17.1195 116.687 16.9327 116.353 16.7622C116.019 16.5921 115.709 16.3938 115.665 16.322C115.597 16.2119 113.117 14.9568 108.971 12.9336C108.491 12.6998 108.008 12.5081 107.898 12.5081C107.788 12.5085 107.486 12.3768 107.227 12.2165C106.968 12.0558 106.437 11.8816 106.047 11.8298C105.658 11.778 105.044 11.5838 104.685 11.399C104.325 11.2138 103.628 10.9981 103.135 10.9197C102.643 10.8414 102.04 10.6738 101.797 10.5473C101.553 10.4209 100.911 10.2234 100.368 10.1084C99.8257 9.99339 99.1249 9.79066 98.811 9.6585C98.4967 9.52593 97.5814 9.35461 96.777 9.27752C95.9722 9.20083 94.8893 9.01524 94.3699 8.86513C93.7828 8.69544 92.7112 8.56083 91.5369 8.50902C90.4982 8.46293 89.2885 8.32669 88.8492 8.20636C88.4098 8.08603 88.0501 7.99343 88.0501 8.00037C88.0501 8.00771 87.8872 8.0587 87.6883 8.11458ZM54.999 8.4201C54.4797 8.48251 53.4849 8.54166 52.7889 8.55104C51.9292 8.56246 51.2999 8.65587 50.8276 8.84187C50.4293 8.99851 49.4145 9.1784 48.4518 9.26283C47.2925 9.3644 46.5941 9.50105 46.1998 9.70256C45.8855 9.86286 45.1928 10.0623 44.6604 10.1451C44.1277 10.2283 43.5393 10.396 43.3529 10.5184C43.1661 10.6407 42.5213 10.8427 41.9195 10.9671C41.3182 11.0915 40.569 11.3252 40.2547 11.4859C39.9404 11.647 39.5104 11.7788 39.2996 11.7788C39.0889 11.7788 38.6089 11.9428 38.2329 12.1435C37.8573 12.3442 37.4647 12.5085 37.3603 12.5085C37.256 12.5085 36.8178 12.6954 36.3874 12.9242C35.9566 13.1526 35.3783 13.3835 35.1026 13.4369C34.8269 13.4908 34.4672 13.6588 34.3035 13.811C34.1399 13.9631 33.731 14.161 33.3948 14.2507C33.0585 14.34 32.743 14.4795 32.6935 14.5599C32.6435 14.6407 32.2322 14.8911 31.7791 15.1167C30.2868 15.8595 29.9429 16.0557 29.5275 16.4C29.3017 16.5872 29.0402 16.7418 28.9464 16.7434C28.7698 16.7463 27.8431 17.3234 26.96 17.981C26.1336 18.5965 25.1542 19.2161 25.0036 19.219C24.9268 19.2206 24.7307 19.352 24.5679 19.5115C24.0221 20.0466 22.8754 20.973 22.7593 20.973C22.696 20.973 22.4548 21.1365 22.2233 21.3368C21.9919 21.5371 21.6065 21.8626 21.3665 22.0609C20.7956 22.5324 17.8342 25.3294 16.7204 26.4491C15.8364 27.3375 15.2781 27.9563 13.9572 29.5092C13.5581 29.9787 13.0854 30.5176 12.9075 30.7064C12.7297 30.8949 12.5068 31.1955 12.4122 31.3746C12.3175 31.5532 11.9342 32.0607 11.5607 32.5024C10.8237 33.3733 10.4119 33.9978 9.9681 34.9193C9.81055 35.2456 9.54905 35.6331 9.38622 35.7812C9.2238 35.9292 9.09061 36.1283 9.09061 36.2237C9.09061 36.3192 8.96554 36.5109 8.81327 36.6496C8.66059 36.7883 8.45391 37.1105 8.35402 37.3655C8.25373 37.6204 8.06207 37.9606 7.92807 38.1209C7.79447 38.2816 7.59794 38.6426 7.49196 38.9237C7.38598 39.2047 7.21666 39.5331 7.11555 39.6534C7.01485 39.7737 6.79517 40.1678 6.62747 40.5292C6.45977 40.8902 6.23237 41.3499 6.12152 41.5506C5.64034 42.4215 5.02273 43.759 5.02273 43.9299C5.02273 44.0323 4.8932 44.3708 4.73524 44.6821C4.57729 44.9933 4.37547 45.4836 4.28655 45.7712C4.19803 46.0583 3.97429 46.6221 3.78953 47.0234C3.35627 47.9653 2.87875 49.4056 2.61034 50.5824C2.4934 51.0947 2.23636 51.8563 2.03943 52.2748C1.84249 52.6929 1.68128 53.2709 1.68128 53.5593C1.68128 53.8477 1.52252 54.5966 1.32842 55.2236C1.1193 55.8999 0.912212 57.0836 0.820443 58.1323C0.735171 59.1052 0.568687 60.1339 0.450119 60.4182C-0.148004 61.8561 -0.150848 73.417 0.446462 75.1175C0.56828 75.4642 0.761563 76.6406 0.876072 77.7314C0.99058 78.8217 1.17818 79.9442 1.2935 80.2249C1.40882 80.5059 1.58221 81.2283 1.67885 81.8304C1.77549 82.4325 1.94725 83.0712 2.06014 83.2503C2.17302 83.4294 2.36143 83.9931 2.47919 84.5034C2.59694 85.0137 2.82027 85.721 2.97498 86.0755C3.12969 86.4295 3.30429 86.9814 3.36317 87.302C3.42205 87.6222 3.62346 88.1741 3.81065 88.5278C3.99784 88.8815 4.15092 89.2596 4.15092 89.3677C4.15092 89.4758 4.34705 89.9816 4.58662 90.491C4.8266 91.0009 5.02273 91.4619 5.02273 91.5161C5.02273 91.7144 6.18202 94.0704 6.32252 94.1577C6.4021 94.2071 6.54098 94.524 6.63031 94.8617C6.71964 95.1995 6.8776 95.5744 6.98074 95.6947C7.08428 95.815 7.35593 96.2674 7.58495 96.6994C7.81356 97.1317 8.09252 97.6571 8.20459 97.8672C8.31666 98.0769 8.56192 98.4346 8.74952 98.6614C8.93712 98.8882 9.09061 99.1623 9.09061 99.2704C9.09061 99.3785 9.24491 99.6526 9.43332 99.8794C9.62173 100.106 9.88567 100.489 10.0201 100.73C10.1541 100.971 10.4598 101.43 10.699 101.751C11.1148 102.309 11.4206 102.734 12.2193 103.867C12.6205 104.436 13.0501 104.975 13.5942 105.59C15.4917 107.737 16.4346 108.762 17.3116 109.632C18.8624 111.171 21.5541 113.596 22.0093 113.864C22.4133 114.103 23.3221 114.814 24.6353 115.92C25.3146 116.492 26.0338 117.01 26.2335 117.071C26.4333 117.133 26.7171 117.289 26.8641 117.419C27.1187 117.644 27.7928 118.056 29.0573 118.761C29.3719 118.936 29.7155 119.166 29.821 119.272C29.9262 119.377 30.1593 119.509 30.3384 119.563C30.5178 119.618 30.7972 119.784 30.9592 119.933C31.1212 120.081 31.5444 120.306 31.8992 120.432C32.2545 120.558 32.6777 120.782 32.8397 120.929C33.0017 121.077 33.3728 121.241 33.6644 121.293C33.9559 121.345 34.3482 121.509 34.5362 121.657C34.7238 121.805 35.0917 121.973 35.3532 122.031C35.6151 122.088 36.0073 122.284 36.225 122.466C36.4426 122.649 36.8824 122.845 37.202 122.902C37.5219 122.96 38.0035 123.136 38.2727 123.294C38.5415 123.451 39.082 123.649 39.473 123.733C39.8645 123.818 40.2799 123.983 40.3968 124.1C40.5133 124.217 41.0189 124.384 41.5204 124.471C42.0218 124.558 42.7264 124.776 43.0861 124.955C43.4455 125.133 44.1321 125.319 44.6113 125.368C45.0908 125.416 45.866 125.588 46.3334 125.751C46.8011 125.913 47.6839 126.109 48.2946 126.186C48.9057 126.264 49.6671 126.421 49.9867 126.534C50.9709 126.885 57.5406 127.169 58.0047 126.882C58.1561 126.787 58.1273 116.336 57.9738 115.871C57.9295 115.737 57.3838 115.689 55.9082 115.689C54.3591 115.689 53.6724 115.624 52.8892 115.403C52.3316 115.246 51.2215 115.041 50.4228 114.948C49.6236 114.855 48.5123 114.627 47.9527 114.44C47.3936 114.253 46.6221 114.059 46.2387 114.009C45.8554 113.959 45.2017 113.758 44.7859 113.564C44.3705 113.37 43.8995 113.209 43.7399 113.208C43.5799 113.206 43.1223 113.053 42.7227 112.867C42.3231 112.681 41.6889 112.451 41.3133 112.357C40.9377 112.263 40.3233 112.022 39.9481 111.821C39.5725 111.621 39.1872 111.457 39.0917 111.457C38.9959 111.457 38.8006 111.326 38.6577 111.167C38.5143 111.008 38.1724 110.836 37.8983 110.784C37.6238 110.733 37.2243 110.544 37.0103 110.365C36.7963 110.186 36.3809 109.961 36.0877 109.865C35.7946 109.769 35.4754 109.594 35.3788 109.477C35.2817 109.36 34.9333 109.131 34.6044 108.969C33.9031 108.624 33.0939 108.135 32.6078 107.763C32.4178 107.617 31.9309 107.289 31.5253 107.033C31.1196 106.777 30.4005 106.236 29.927 105.831C29.4536 105.426 28.903 104.992 28.7032 104.866C27.7952 104.292 22.821 99.3703 22.6716 98.8976C22.6225 98.7413 22.5226 98.6137 22.4503 98.6137C22.3776 98.6137 22.2217 98.433 22.1031 98.2123C21.9845 97.9916 21.5744 97.4679 21.1915 97.0485C20.8082 96.6292 20.2661 95.9553 19.9863 95.5515C19.707 95.1477 19.2981 94.5787 19.0784 94.2874C18.8587 93.9958 18.6788 93.6907 18.6788 93.6087C18.6788 93.5271 18.5156 93.2448 18.3158 92.9817C18.116 92.7186 17.9524 92.4384 17.9524 92.3593C17.9524 92.2797 17.8009 92.0288 17.6158 91.8021C17.2122 91.3085 16.2884 89.6393 16.1353 89.1274C16.0752 88.9267 15.9034 88.5882 15.7544 88.3752C15.605 88.1623 15.4828 87.8996 15.4824 87.7915C15.482 87.6834 15.2862 87.2009 15.0471 86.7196C14.8079 86.2378 14.6122 85.7561 14.6118 85.6492C14.6114 85.5423 14.4148 85.0059 14.1753 84.4573C13.9357 83.9087 13.7396 83.3519 13.7396 83.2197C13.7396 83.088 13.5796 82.6393 13.3843 82.2228C13.1889 81.8063 12.9644 81.0611 12.886 80.5663C12.8073 80.0719 12.6351 79.3495 12.5035 78.9612C12.3716 78.5725 12.2063 77.4976 12.136 76.5725C12.0658 75.647 11.9131 74.6619 11.7974 74.3829C11.1607 72.8524 11.1282 62.4863 11.7552 60.9595C11.8701 60.6793 12.0439 59.7276 12.1413 58.8445C12.2388 57.9618 12.4105 57.0155 12.5226 56.7418C12.6351 56.4681 12.7975 55.7783 12.8836 55.2093C12.9693 54.6403 13.1581 53.9019 13.3026 53.5683C13.4472 53.235 13.6693 52.604 13.796 52.1655C13.9227 51.7274 14.1249 51.1792 14.2451 50.9475C14.3657 50.7158 14.4644 50.4205 14.4648 50.2912C14.4656 50.1619 14.6572 49.6964 14.8907 49.2563C15.1246 48.8166 15.3605 48.2157 15.4158 47.9212C15.4706 47.6267 15.6269 47.2384 15.7633 47.0585C15.8994 46.8786 16.1008 46.5017 16.2108 46.2207C16.4411 45.6317 17.1992 44.2542 17.8172 43.3021C18.0519 42.9407 18.3844 42.3497 18.5566 41.9887C18.9014 41.265 19.238 40.7535 19.949 39.8725C20.208 39.5514 20.5495 39.1244 20.7083 38.9237C21.0782 38.4562 22.458 36.7414 23.4309 35.5401C24.5772 34.1251 27.2698 31.4961 28.2212 30.863C28.6861 30.5539 29.361 30.0452 29.7212 29.7327C30.5097 29.0483 31.2386 28.5131 31.827 28.1864C32.0665 28.053 32.4105 27.8082 32.5912 27.6422C33.0192 27.249 35.0243 25.9935 35.6768 25.7104C35.9566 25.5888 36.3488 25.3881 36.5482 25.2641C36.748 25.1401 37.1069 24.9615 37.3453 24.8668C37.584 24.7718 38.4457 24.3557 39.2603 23.9421C40.0744 23.5285 40.958 23.1426 41.2235 23.0851C41.4887 23.0276 41.9995 22.8241 42.3585 22.6336C42.7174 22.4427 43.1422 22.2856 43.3026 22.2852C43.4634 22.2844 43.9478 22.1184 44.3798 21.9165C44.8119 21.7145 45.5712 21.4914 46.0674 21.4209C46.564 21.3503 47.184 21.181 47.4456 21.0452C47.7071 20.9093 48.4631 20.7103 49.1254 20.6022C49.7877 20.4945 50.6774 20.2983 51.1025 20.1657C51.6462 19.9969 52.7474 19.8941 54.8135 19.8206C56.4296 19.7627 57.8025 19.6648 57.8646 19.6028C58.0298 19.4368 58.0786 8.82964 57.9153 8.57551C57.7525 8.32261 56.4024 8.25082 54.999 8.4201ZM38.4116 35.7302C38.1306 35.8354 37.9597 36.0626 37.7944 36.5488C37.6689 36.9184 37.4764 37.3251 37.3664 37.4524C37.2564 37.5792 37.0842 37.9459 36.9843 38.2669C36.884 38.588 36.7143 38.9526 36.6067 39.077C36.4987 39.2015 36.3123 39.5832 36.1921 39.9255C36.0719 40.2681 35.8413 40.7168 35.6796 40.9232C35.5184 41.1292 35.3861 41.3784 35.3861 41.4772C35.3861 41.5755 35.2257 41.8936 35.0295 42.1841C34.833 42.4745 34.5983 42.9925 34.5074 43.3356C34.4164 43.6782 34.2584 44.0572 34.1561 44.1775C34.0538 44.2978 33.8865 44.6592 33.7846 44.9802C33.6822 45.3013 33.4508 45.761 33.2697 46.002C33.089 46.2427 32.8953 46.6865 32.8397 46.9884C32.784 47.2898 32.6172 47.6912 32.4694 47.88C32.3215 48.0689 32.1384 48.5017 32.0625 48.8415C31.9861 49.1813 31.7957 49.6006 31.6386 49.7735C31.4814 49.9465 31.3064 50.4148 31.2492 50.8141C31.1923 51.2134 30.9881 51.8367 30.796 52.1993C30.6039 52.562 30.446 52.9907 30.4452 53.1518C30.4443 53.3129 30.2921 53.773 30.1069 54.1744C29.9218 54.5758 29.6871 55.3304 29.5859 55.8509C29.4844 56.3718 29.3054 56.9849 29.1876 57.2133C29.0698 57.4417 28.9111 58.0336 28.8347 58.5284C28.7584 59.0236 28.5696 59.7566 28.4157 60.158C28.2618 60.5594 28.0364 61.5857 27.9146 62.4382C27.7928 63.2911 27.6263 64.1657 27.5443 64.3814C26.6786 66.6686 27.217 75.5527 28.356 77.7734C28.4673 77.99 28.6516 78.5712 28.7665 79.0648C28.881 79.5584 29.0686 80.0703 29.1835 80.2029C29.298 80.3354 29.6741 81.035 30.0184 81.7574C30.3631 82.4798 30.7964 83.2564 30.9816 83.4832C31.1667 83.7104 31.3182 83.9642 31.3182 84.0478C31.3182 84.1314 31.4981 84.4182 31.7177 84.6853C31.9374 84.9521 32.2809 85.382 32.4807 85.6406C33.9145 87.497 37.2239 90.4539 38.9971 91.4631C39.2095 91.5834 39.7776 91.9877 40.2604 92.3605C40.7432 92.7337 41.3636 93.1433 41.6398 93.2709C41.9159 93.3982 42.5339 93.7347 43.0134 94.0182C43.4926 94.3017 44.1695 94.6643 44.5175 94.8238C44.8655 94.9833 45.3154 95.2444 45.5176 95.4043C45.7198 95.5642 45.9947 95.6947 46.1283 95.6947C46.2619 95.6947 46.5924 95.8591 46.8633 96.0598C47.1341 96.2605 47.4525 96.4244 47.5706 96.4244C47.7639 96.4244 49.6565 97.2717 50.2047 97.6033C50.3245 97.6759 50.7496 97.9088 51.1492 98.1205C51.5484 98.3326 51.911 98.561 51.954 98.6283C51.9971 98.6957 52.3052 98.8478 52.6386 98.9657C52.972 99.084 53.443 99.3279 53.6858 99.5082C53.9835 99.7293 54.3416 99.8386 54.7879 99.8447L55.4489 99.8541L55.9399 98.9053C58.0603 94.8087 57.7229 90.7101 55.0092 87.5949C54.2779 86.7554 53.4308 86.0751 52.9866 85.9694C52.7751 85.9192 52.4709 85.7638 52.3113 85.6235C52.1514 85.4836 51.7591 85.2858 51.4395 85.1838C51.12 85.0818 50.7082 84.8815 50.5247 84.7379C50.3412 84.5948 50.0025 84.4361 49.7723 84.3851C49.5416 84.3341 49.2696 84.1914 49.1672 84.0678C49.0649 83.9442 48.652 83.6827 48.2491 83.4873C47.8463 83.2919 47.2129 82.9538 46.8409 82.7364C46.469 82.5189 45.946 82.2191 45.6788 82.0694C45.4112 81.9201 45.0616 81.6725 44.902 81.5192C44.742 81.3658 44.1183 80.8571 43.5157 80.3889C41.5533 78.8637 39.5786 76.4538 39.2168 75.142C39.121 74.7944 38.9443 74.4004 38.8246 74.2662C38.7048 74.1324 38.4993 73.6038 38.3677 73.0919C38.2366 72.5799 38.0185 71.9913 37.8833 71.7841C37.5284 71.2391 37.5264 65.2066 37.8813 64.5364C38.0088 64.2954 38.2171 63.5889 38.3446 62.966C38.4721 62.3427 38.6853 61.6224 38.8177 61.3646C38.9504 61.1068 39.1466 60.5186 39.2538 60.0572C39.361 59.5963 39.5806 58.9714 39.7418 58.6691C39.903 58.3669 40.0354 58.0197 40.0358 57.8982C40.0358 57.7766 40.232 57.2831 40.4711 56.8013C40.7099 56.32 40.906 55.8566 40.9064 55.7718C40.9064 55.6869 41.0668 55.3998 41.2625 55.1334C41.4578 54.8671 41.6584 54.4648 41.7076 54.2397C41.7567 54.0141 41.8935 53.7494 42.0113 53.6515C42.129 53.5532 42.3572 53.1649 42.5185 52.7888C43.0402 51.5699 44.4022 51.3517 45.7503 52.2707C46.0211 52.4555 46.4966 52.6884 46.8072 52.7888C47.1179 52.8891 47.4732 53.0596 47.597 53.1677C47.7209 53.2758 48.1099 53.4663 48.4615 53.5907C48.8132 53.7155 49.2022 53.9032 49.326 54.0084C49.4495 54.1137 49.7796 54.2866 50.0594 54.3931C50.3391 54.4995 50.6985 54.6994 50.8585 54.8369C51.0185 54.9747 51.4107 55.1685 51.7303 55.2672C52.0498 55.3663 52.4628 55.5434 52.6484 55.6604C52.8339 55.7775 53.2274 55.959 53.523 56.0638C53.819 56.1683 54.3136 56.4265 54.6226 56.6374C54.932 56.8478 55.2707 57.0204 55.3759 57.0204C55.481 57.0204 55.8079 57.1848 56.1023 57.3855C56.3967 57.5857 56.7593 57.7501 56.9079 57.7501C57.0565 57.7501 57.3136 57.886 57.4788 58.052C57.6441 58.218 58.0493 58.4497 58.3795 58.5667C58.7096 58.6838 59.0811 58.8678 59.205 58.9759C59.3288 59.084 59.6914 59.2549 60.011 59.3548C60.3306 59.4552 60.7228 59.6542 60.8828 59.7974C61.0424 59.9402 61.4176 60.1237 61.716 60.2049C62.0141 60.2857 62.4315 60.4892 62.6435 60.6564C62.8554 60.8237 63.1157 60.9607 63.2221 60.9607C63.4641 60.9607 65.7539 62.1233 66.0142 62.3782C66.1197 62.4814 66.2834 62.5663 66.3776 62.5663C66.5302 62.5659 68.1248 63.3021 69.0913 63.8185C69.291 63.9254 69.7271 64.1518 70.0601 64.3219C70.3935 64.4916 70.6988 64.7159 70.7386 64.8203C70.9867 65.4693 73.3865 65.3788 74.4496 64.6804C74.7387 64.4903 75.1553 64.2913 75.3758 64.237C75.5963 64.1832 75.8082 64.0882 75.8468 64.0253C75.9341 63.8834 78.1873 62.7747 78.6795 62.6319C78.8793 62.5736 79.2277 62.3709 79.4534 62.1812C79.6792 61.9915 79.9484 61.8365 80.0511 61.8365C80.1543 61.8365 80.4089 61.7019 80.6172 61.5371C80.8259 61.3723 81.3087 61.1333 81.6904 61.006C82.0721 60.8788 82.4822 60.6915 82.602 60.5904C82.7218 60.4888 83.097 60.3236 83.4352 60.2233C83.7735 60.1225 84.1596 59.919 84.2928 59.7709C84.4264 59.6228 84.6075 59.5013 84.6948 59.5009C84.9035 59.5 87.1003 58.382 87.3898 58.1291C87.5132 58.0214 87.8759 57.8509 88.1954 57.7501C88.515 57.6494 88.8748 57.485 88.9945 57.3846C89.1143 57.2843 89.5066 57.062 89.8659 56.8907C90.2257 56.7189 90.6833 56.4868 90.8831 56.3747C91.8008 55.8587 93.036 55.2982 93.462 55.204C93.7198 55.1473 93.97 55.0367 94.0183 54.9584C94.0666 54.8797 94.443 54.6541 94.8552 54.4567C95.2673 54.2593 95.768 54.0002 95.9678 53.882C96.1675 53.7633 96.5598 53.5683 96.8396 53.4488C97.1193 53.3297 97.4462 53.1706 97.566 53.0955C99.2544 52.0411 101.156 51.5039 101.902 51.8718C102.699 52.2646 105.141 57.1803 105.839 59.7933C105.978 60.315 106.195 60.9416 106.321 61.1859C106.446 61.4302 106.624 62.0539 106.714 62.5724C106.805 63.0908 107.006 63.8928 107.162 64.3545C107.539 65.4734 107.585 70.8488 107.225 71.7152C107.104 72.006 106.906 72.6746 106.784 73.2003C106.663 73.7261 106.469 74.2609 106.354 74.3886C106.239 74.5163 106.046 74.9025 105.925 75.2472C105.804 75.5915 105.557 76.0602 105.377 76.289C105.196 76.5174 104.819 77.0163 104.539 77.3977C103.537 78.7646 100.552 81.5436 99.7047 81.8993C99.4184 82.0193 99.1464 82.1788 99.1005 82.253C98.9791 82.4508 96.8895 83.5815 96.6463 83.5815C96.5326 83.5815 96.3503 83.6892 96.2419 83.8206C96.1334 83.9519 95.7493 84.1865 95.3887 84.3419C95.0282 84.4969 94.6351 84.7114 94.5149 84.8183C94.3951 84.9248 94.0682 85.0749 93.7885 85.1512C93.5091 85.2278 93.0259 85.4644 92.7153 85.6765C92.4042 85.8891 92.07 86.0628 91.9722 86.0628C91.8211 86.0628 90.9217 86.6841 90.5498 87.0451C90.4864 87.1067 90.1392 87.6157 89.7791 88.1762C89.4185 88.7366 89.0429 89.2951 88.9438 89.4166C88.8451 89.5386 88.677 89.9008 88.5706 90.2218C88.4646 90.5433 88.2714 90.9275 88.141 91.0764C87.7346 91.5418 87.7963 96.1985 88.2166 96.7907C88.3883 97.0322 88.6011 97.4997 88.6892 97.8297C88.7777 98.1597 88.9669 98.5859 89.1095 98.7768C89.2524 98.9681 89.451 99.314 89.5508 99.5453C89.7713 100.057 90.9521 100.024 91.6075 99.4882C91.8081 99.3238 92.2016 99.086 92.481 98.96C92.7607 98.8335 93.0876 98.6471 93.2074 98.5447C93.3276 98.4427 93.7629 98.249 94.1754 98.114C94.588 97.9794 94.962 97.7738 95.0062 97.6575C95.0509 97.5413 95.1747 97.4462 95.2815 97.4462C95.3883 97.4462 95.93 97.2166 96.4847 96.9355C97.0394 96.6549 97.5977 96.4253 97.7252 96.4248C97.8523 96.4248 98.0728 96.2959 98.2141 96.1385C98.3558 95.9815 98.7903 95.7465 99.1793 95.6168C99.5687 95.4867 99.9276 95.3145 99.9772 95.2338C100.027 95.153 100.338 94.9576 100.669 94.7993C101 94.6415 101.663 94.2903 102.142 94.0194C102.622 93.7482 103.285 93.3961 103.615 93.2362C103.946 93.0768 104.261 92.874 104.315 92.7859C104.369 92.6978 104.655 92.4926 104.949 92.3303C105.518 92.0154 106.269 91.5051 106.864 91.0278C107.064 90.8679 107.306 90.7358 107.402 90.7346C108.229 90.7256 113.622 84.718 114.871 82.4141C115.023 82.1331 115.206 81.8047 115.277 81.6844C115.93 80.572 116.588 78.8082 117.181 76.5766C117.405 75.7339 117.662 74.8144 117.751 74.5334C117.931 73.9676 117.994 66.352 117.826 65.3943C117.772 65.083 117.64 64.5328 117.534 64.1714C117.427 63.8104 117.266 62.9236 117.175 62.2012C117.083 61.4788 116.851 60.417 116.658 59.8419C116.465 59.2663 116.307 58.6687 116.307 58.5137C116.307 58.1409 115.513 55.4377 115.064 54.2813C114.869 53.7779 114.709 53.2526 114.709 53.1135C114.709 52.9748 114.524 52.4669 114.298 51.9856C114.071 51.5039 113.843 50.8908 113.79 50.6232C113.738 50.3556 113.571 49.9616 113.421 49.7474C113.27 49.5337 113.098 49.1286 113.039 48.8476C112.979 48.567 112.782 48.0742 112.6 47.7532C112.418 47.4322 112.221 47.0051 112.163 46.8044C112.104 46.6037 111.938 46.2717 111.794 46.0661C111.65 45.8605 111.488 45.4991 111.434 45.2633C111.331 44.8167 110.724 43.411 110.144 42.2803C109.959 41.9193 109.766 41.4449 109.714 41.2259C109.662 41.0072 109.458 40.5879 109.259 40.2934C109.06 39.9993 108.898 39.6632 108.898 39.5461C108.898 39.4291 108.765 39.1472 108.604 38.9196C108.443 38.6916 108.219 38.2547 108.106 37.9484C107.221 35.5295 106.393 35.0959 104.774 36.2025C104.462 36.415 104.097 36.5888 103.961 36.5888C103.824 36.5888 103.597 36.7173 103.455 36.8744C103.314 37.0318 102.883 37.2651 102.5 37.3932C102.115 37.5213 101.726 37.7171 101.635 37.8276C101.543 37.9386 101.28 38.0707 101.05 38.1217C100.819 38.1727 100.468 38.3424 100.27 38.499C100.071 38.6557 99.6304 38.8829 99.2897 39.0036C98.9486 39.1244 98.5686 39.3116 98.4447 39.4201C98.3209 39.5282 97.9786 39.6942 97.6838 39.7892C97.3894 39.8843 96.9971 40.0776 96.8124 40.2188C96.6276 40.3603 96.2475 40.5643 95.9678 40.6724C95.688 40.7804 95.3611 40.9481 95.2413 41.0452C95.1216 41.1419 94.6854 41.3319 94.2721 41.467C93.8587 41.602 93.4421 41.8076 93.3463 41.9234C93.2504 42.0397 93.0953 42.1343 93.0015 42.1343C92.9077 42.1343 92.213 42.4598 91.4573 42.8571C90.702 43.2544 89.8554 43.6892 89.5756 43.8234C89.2958 43.9572 88.969 44.1261 88.8492 44.1979C88.7294 44.2697 88.2389 44.5262 87.7597 44.7681C87.2802 45.0096 86.4628 45.442 85.9434 45.7292C85.4241 46.0163 84.7151 46.3386 84.3679 46.445C84.0207 46.5511 83.6285 46.733 83.4965 46.8489C83.3642 46.9647 82.9942 47.1434 82.6747 47.2457C82.3551 47.3481 81.8658 47.5859 81.5877 47.7748C81.3095 47.9637 81.0253 48.1178 80.9562 48.1178C80.8876 48.1178 80.6391 48.2553 80.4048 48.423C80.1705 48.5906 79.749 48.7913 79.4684 48.8692C79.1875 48.9471 78.7229 49.1711 78.4354 49.3669C78.1479 49.5631 77.8 49.7234 77.6619 49.7234C77.5238 49.7234 77.242 49.8572 77.0354 50.0203C76.8283 50.1839 76.4437 50.3899 76.1802 50.4784C75.9167 50.5669 75.4931 50.7945 75.239 50.9842C74.9844 51.1735 74.7155 51.3289 74.6412 51.3289C74.5673 51.3289 74.2595 51.5259 73.9578 51.7666C73.3321 52.2662 72.2171 52.3699 71.5609 51.9897C71.3611 51.8738 70.8572 51.6058 70.441 51.3937C70.0248 51.1816 69.6082 50.9165 69.5152 50.8039C69.4222 50.6909 69.2395 50.5987 69.1095 50.5979C68.9796 50.5975 68.7096 50.5057 68.5098 50.394C67.4211 49.785 66.3362 49.2082 65.8221 48.9655C65.5025 48.8146 65.1103 48.6155 64.9507 48.5229C63.964 47.9518 60.9291 46.516 60.4166 46.3777C60.0804 46.2872 59.7641 46.1456 59.7134 46.0632C59.6626 45.9808 59.2541 45.7361 58.805 45.5199C58.3563 45.3033 57.8585 45.0606 57.6989 44.9802C56.8689 44.5621 55.0169 43.6044 54.6356 43.3955C54.396 43.2646 53.9709 43.0598 53.6915 42.9407C53.4118 42.8216 53.0849 42.6629 52.9651 42.5879C52.5452 42.3256 50.5446 41.4045 50.3952 41.4045C50.3119 41.4045 50.0768 41.2728 49.873 41.1117C49.6687 40.9501 49.3049 40.7788 49.0645 40.7303C48.8237 40.6821 48.4908 40.5153 48.3247 40.3599C48.1586 40.2045 47.7489 39.9801 47.4139 39.8614C47.0789 39.7427 46.7037 39.5571 46.5798 39.449C46.456 39.341 46.1064 39.1725 45.8031 39.0746C45.4993 38.9767 45.14 38.7801 45.0039 38.6377C44.8679 38.4954 44.4951 38.2947 44.1756 38.1923C43.856 38.0895 43.4443 37.8884 43.2607 37.7452C43.0772 37.6016 42.743 37.4438 42.5176 37.394C42.2927 37.3447 41.9674 37.1717 41.7949 37.0106C41.6223 36.8491 41.2702 36.6443 41.0124 36.555C40.7545 36.466 40.3148 36.2441 40.035 36.0618C39.393 35.6437 38.9062 35.5442 38.4116 35.7302Z" fill="white"/>
<path d="M204.86 111.753C196.331 111.753 188.733 109.913 182.066 106.233C175.442 102.553 170.268 97.3364 166.545 90.5825C162.821 83.8286 160.96 76.0789 160.96 67.3335C160.96 58.6313 162.8 50.925 166.48 44.2144C170.16 37.4604 175.312 32.2435 181.936 28.5635C188.603 24.8835 196.244 23.0435 204.86 23.0435C211.96 23.0435 218.454 24.2557 224.342 26.6802C230.23 29.1047 235.101 32.6115 238.954 37.2007C242.807 41.7466 245.275 47.0285 246.358 53.0464H229.018C227.676 48.4572 224.819 44.7122 220.446 41.8115C216.073 38.8675 210.835 37.3955 204.73 37.3955C199.232 37.3955 194.383 38.6294 190.183 41.0972C186.027 43.5649 182.823 47.0934 180.572 51.6826C178.321 56.2285 177.195 61.4888 177.195 67.4634C177.195 73.4813 178.342 78.7632 180.637 83.3091C182.931 87.8117 186.157 91.2536 190.313 93.6348C194.513 96.016 199.318 97.2065 204.73 97.2065C210.661 97.2065 215.835 95.7778 220.251 92.9204C224.71 90.0197 227.633 86.1882 229.018 81.4258H246.358C245.362 87.3571 242.959 92.639 239.149 97.2715C235.339 101.861 230.49 105.432 224.602 107.987C218.714 110.498 212.133 111.753 204.86 111.753ZM344.974 67.3335C344.974 75.9058 343.026 83.5688 339.129 90.3228C335.233 97.0767 329.843 102.337 322.959 106.104C316.118 109.87 308.434 111.753 299.905 111.753C291.376 111.753 283.691 109.892 276.85 106.168C270.053 102.445 264.728 97.2065 260.875 90.4526C257.022 83.6987 255.095 76.0356 255.095 67.4634C255.095 58.8478 257.022 51.1847 260.875 44.4741C264.728 37.7202 270.053 32.46 276.85 28.6934C283.691 24.9268 291.419 23.0435 300.034 23.0435C308.563 23.0435 316.226 24.9268 323.024 28.6934C329.864 32.46 335.233 37.6986 339.129 44.4092C343.026 51.0765 344.974 58.7179 344.974 67.3335ZM328.479 67.3335C328.479 61.5321 327.267 56.38 324.842 51.8774C322.418 47.3748 319.019 43.868 314.646 41.3569C310.317 38.8026 305.446 37.5254 300.034 37.5254C294.536 37.5254 289.601 38.8026 285.228 41.3569C280.898 43.868 277.5 47.3748 275.032 51.8774C272.564 56.38 271.33 61.5754 271.33 67.4634C271.33 73.2215 272.564 78.3735 275.032 82.9194C277.5 87.422 280.898 90.9289 285.228 93.4399C289.601 95.951 294.536 97.2065 300.034 97.2065C305.446 97.2065 310.317 95.951 314.646 93.4399C319.019 90.9289 322.418 87.422 324.842 82.9194C327.267 78.3735 328.479 73.1782 328.479 67.3335ZM391.377 24.7319C399.69 24.7319 407.093 26.5503 413.587 30.187C420.125 33.8237 425.212 38.9108 428.849 45.4482C432.485 51.9424 434.304 59.3241 434.304 67.5933C434.304 75.8192 432.507 83.1576 428.913 89.6084C425.32 96.016 420.255 101.016 413.717 104.61C407.223 108.203 399.776 110 391.377 110H359.686V24.7319H391.377ZM390.014 95.7778C395.599 95.7778 400.491 94.6089 404.69 92.271C408.933 89.8898 412.202 86.5778 414.496 82.335C416.791 78.0921 417.938 73.1782 417.938 67.5933C417.938 61.9217 416.791 56.9429 414.496 52.6567C412.202 48.3273 408.933 44.972 404.69 42.5908C400.491 40.1663 395.599 38.9541 390.014 38.9541H375.272V95.7778H390.014ZM464.602 38.9541V60.2549H499.605V73.8276H464.602V95.7778H503.566V110H449.016V24.7319H503.566V38.9541H464.602ZM549.68 48.9551C549.68 43.7165 550.936 39.1489 553.447 35.2524C556.001 31.356 559.573 28.347 564.162 26.2256C568.795 24.1042 574.12 23.0435 580.138 23.0435C586.069 23.0435 591.351 24.0825 595.984 26.1606C600.616 28.2388 604.231 31.1828 606.829 34.9927C609.427 38.8026 610.725 43.2402 610.725 48.3057H594.685C594.598 44.6689 593.148 41.7466 590.334 39.5386C587.563 37.2873 583.905 36.1616 579.359 36.1616C575.202 36.1616 571.869 37.2007 569.358 39.2788C566.89 41.3136 565.656 43.9546 565.656 47.2017C565.656 50.4054 566.738 52.765 568.903 54.2803C571.111 55.7956 574.034 56.9862 577.67 57.8521L591.633 61.2939C597.997 62.8092 603.149 65.6017 607.089 69.6714C611.028 73.6978 612.998 78.8931 612.998 85.2573C612.998 90.5825 611.656 95.2367 608.972 99.2197C606.331 103.203 602.564 106.298 597.672 108.506C592.823 110.671 587.173 111.753 580.722 111.753C571.154 111.753 563.361 109.437 557.344 104.805C551.369 100.129 548.122 93.7863 547.602 85.7769H563.643C563.816 89.7599 565.483 92.8988 568.643 95.1934C571.804 97.4447 575.917 98.5703 580.982 98.5703C585.874 98.5703 589.706 97.5312 592.477 95.4531C595.248 93.375 596.633 90.5176 596.633 86.8809C596.633 83.7637 595.659 81.4041 593.711 79.8022C591.763 78.2004 589.208 77.0098 586.048 76.2305L571.761 72.7886C564.747 71.1001 559.313 68.286 555.46 64.3462C551.607 60.3631 549.68 55.2327 549.68 48.9551ZM662.519 24.7319C671.481 24.7319 678.516 27.2646 683.625 32.3301C688.777 37.3955 691.353 44.1711 691.353 52.6567C691.353 58.1551 690.184 63.0257 687.846 67.2686C685.508 71.4681 682.131 74.7585 677.715 77.1396C673.343 79.5208 668.191 80.7114 662.259 80.7114H643.102V110H627.516V24.7319H662.519ZM659.337 67.3335C664.575 67.3335 668.494 65.9264 671.091 63.1123C673.732 60.2549 675.053 56.6831 675.053 52.397C675.053 48.5005 673.732 45.2101 671.091 42.5259C668.494 39.7983 664.705 38.4346 659.727 38.4346H643.102V67.3335H659.337ZM721.456 24.7319H737.302L768.928 110H752.433L745.549 90.5825H712.949L705.74 110H689.635L721.456 24.7319ZM741.004 77.6592L735.548 62.6577C735.029 61.229 733.6 57.0078 731.262 49.9941L729.444 44.6689C729.098 45.8379 728.275 48.284 726.976 52.0073C725.677 55.7306 724.357 59.2808 723.015 62.6577L717.43 77.6592H741.004ZM815.332 111.753C806.803 111.753 799.205 109.913 792.537 106.233C785.913 102.553 780.74 97.3364 777.016 90.5825C773.293 83.8286 771.431 76.0789 771.431 67.3335C771.431 58.6313 773.271 50.925 776.951 44.2144C780.631 37.4604 785.783 32.2435 792.407 28.5635C799.075 24.8835 806.716 23.0435 815.332 23.0435C822.432 23.0435 828.926 24.2557 834.814 26.6802C840.702 29.1047 845.573 32.6115 849.426 37.2007C853.279 41.7466 855.747 47.0285 856.829 53.0464H839.49C838.148 48.4572 835.29 44.7122 830.918 41.8115C826.545 38.8675 821.306 37.3955 815.202 37.3955C809.704 37.3955 804.855 38.6294 800.655 41.0972C796.499 43.5649 793.295 47.0934 791.044 51.6826C788.792 56.2285 787.667 61.4888 787.667 67.4634C787.667 73.4813 788.814 78.7632 791.109 83.3091C793.403 87.8117 796.629 91.2536 800.785 93.6348C804.984 96.016 809.79 97.2065 815.202 97.2065C821.133 97.2065 826.307 95.7778 830.723 92.9204C835.182 90.0197 838.105 86.1882 839.49 81.4258H856.829C855.834 87.3571 853.431 92.639 849.621 97.2715C845.811 101.861 840.962 105.432 835.074 107.987C829.186 110.498 822.605 111.753 815.332 111.753ZM886.932 38.9541V60.2549H921.936V73.8276H886.932V95.7778H925.897V110H871.347V24.7319H925.897V38.9541H886.932Z" fill="white"/>
</svg>
