<svg width="1451" height="697" viewBox="0 0 1451 697" fill="none" xmlns="http://www.w3.org/2000/svg">
<g opacity="0.7">
<ellipse cx="1824.76" cy="612.5" rx="777.486" ry="730.875" stroke="#B6B6ED" stroke-width="0.45"/>
<ellipse cx="1747.01" cy="612.5" rx="907.068" ry="852.688" stroke="#B6B6ED" stroke-width="0.45"/>
<ellipse cx="1667.96" cy="612.5" rx="1036.65" ry="974.5" stroke="#B6B6ED" stroke-width="0.45"/>
<ellipse cx="1463.22" cy="612.5" rx="1036.65" ry="974.5" stroke="#B6B6ED" stroke-width="0.45"/>
<ellipse cx="1255.89" cy="612.5" rx="1036.65" ry="974.5" stroke="#B6B6ED" stroke-width="0.45"/>
<ellipse cx="1022.65" cy="612.5" rx="1036.65" ry="974.5" stroke="#B6B6ED" stroke-width="0.45"/>
</g>
<g opacity="0.02">
<g clip-path="url(#clip0_2000_1166)">
<rect x="86" y="-428" width="1472" height="1293" rx="400" fill="white"/>
<path d="M1011.72 -4.71515L1167.35 67.7103L1105.51 165.485" stroke="#F0F0F0" stroke-width="37" stroke-linecap="round" stroke-linejoin="round"/>
<path d="M786.002 174.426C844.234 173.973 957.605 196.787 945.237 291.665C932.87 386.542 884.086 399.398 861.24 393.966" stroke="#F0F0F0" stroke-width="37" stroke-linecap="square" stroke-linejoin="round"/>
<path d="M945.47 423.514L1036.82 428.148L1006.92 554.511" stroke="#F0F0F0" stroke-width="37" stroke-linecap="round" stroke-linejoin="round"/>
<path d="M760.323 458.84C790.799 486.976 869.654 532.46 941.265 489.309" stroke="#F0F0F0" stroke-width="37" stroke-linecap="round" stroke-linejoin="round"/>
<path d="M-0.851962 528.488C8.31461 485.725 67.2451 383.484 276.19 326.465" stroke="#F0F0F0" stroke-width="37" stroke-linecap="round" stroke-linejoin="round"/>
<path d="M1471.15 528.488C1480.31 485.725 1539.25 383.484 1748.19 326.465" stroke="#F0F0F0" stroke-width="37" stroke-linecap="round" stroke-linejoin="round"/>
<path d="M1298.16 28.3021L1208.32 -39.9444" stroke="#F0F0F0" stroke-width="37" stroke-linecap="round" stroke-linejoin="round"/>
<path d="M403.585 220.363L578.28 143.864V291.431L756.582 220.363L675.676 404.143" stroke="#F0F0F0" stroke-width="37" stroke-linecap="round" stroke-linejoin="round"/>
<path d="M669.087 731.557C702.583 718.581 783.695 700.414 840.175 731.557" stroke="#F0F0F0" stroke-width="37" stroke-linecap="round" stroke-linejoin="round"/>
<path d="M646.638 586.953C679.275 549.835 760.937 497.87 826.486 586.953" stroke="#F0F0F0" stroke-width="37" stroke-linecap="round" stroke-linejoin="round"/>
<path d="M367.068 804.364C304.143 808.776 183.022 787.022 201.934 664.714" stroke="#F0F0F0" stroke-width="37" stroke-linecap="round" stroke-linejoin="round"/>
<path d="M1062.03 596.444C1070.19 640.318 1124.84 722.218 1278.21 698.828" stroke="#F0F0F0" stroke-width="37" stroke-linecap="round" stroke-linejoin="round"/>
<path d="M946.253 624.3L903.696 699.217" stroke="#F0F0F0" stroke-width="37" stroke-linecap="round" stroke-linejoin="round"/>
<path d="M729.737 784.513L649.801 887.281L590.937 800.329L506.553 901.088L484.398 766.078" stroke="#F0F0F0" stroke-width="37" stroke-linecap="round" stroke-linejoin="round"/>
<path d="M1323.77 110.146L1280.45 261.064" stroke="#F0F0F0" stroke-width="37" stroke-linecap="round" stroke-linejoin="round"/>
<path d="M1203.86 163.769L1397.81 206.427" stroke="#F0F0F0" stroke-width="37" stroke-linecap="round" stroke-linejoin="round"/>
<path d="M263.252 192.449L327.928 251.39" stroke="#F0F0F0" stroke-width="37" stroke-linecap="round" stroke-linejoin="round"/>
<path d="M342.601 166.004L249.785 262.248" stroke="#F0F0F0" stroke-width="37" stroke-linecap="round" stroke-linejoin="round"/>
<path d="M616.52 18.6164L638.679 146.719" stroke="#F0F0F0" stroke-width="37" stroke-linecap="round" stroke-linejoin="round"/>
<path d="M685.646 19.1044L695.953 122.763" stroke="#F0F0F0" stroke-width="37" stroke-linecap="round" stroke-linejoin="round"/>
<path d="M559.395 528.432L473.43 627.734" stroke="#F0F0F0" stroke-width="37" stroke-linecap="round" stroke-linejoin="round"/>
<path d="M403.658 569.937L419.128 697.039L559.395 677.117" stroke="#F0F0F0" stroke-width="37" stroke-linecap="round" stroke-linejoin="round"/>
<rect x="793.388" y="-44.4948" width="158.823" height="135.011" rx="56.9997" stroke="#F0F0F0" stroke-width="37" stroke-linejoin="round"/>
<rect x="27.7985" width="143.861" height="143.861" rx="56.9997" transform="matrix(0.751311 -0.659949 0.751311 0.659949 336.088 414.26)" stroke="#F0F0F0" stroke-width="37" stroke-linejoin="round"/>
<rect x="27.5676" y="-3.22487" width="164.485" height="189.922" rx="56.9997" transform="matrix(0.668239 -0.743946 0.821902 0.569629 1108.2 482.447)" stroke="#F0F0F0" stroke-width="37" stroke-linejoin="round"/>
<path d="M232.373 512.744C255.419 498.814 284.792 511.102 287.003 535.599C289.356 561.68 259.523 581.784 234.195 571.188C208.866 560.591 207.837 527.574 232.373 512.744Z" stroke="#F0F0F0" stroke-width="37" stroke-linejoin="round"/>
<path d="M1378.47 696.99C1394.73 664.076 1440.21 659.719 1464.16 688.781C1490.33 720.527 1471.5 767.519 1431.06 771.393C1390.62 775.267 1360.71 732.944 1378.47 696.99Z" stroke="#F0F0F0" stroke-width="37" stroke-linejoin="round"/>
<path d="M223.406 8.31433C248.28 1.11593 272.381 20.0212 267.041 42.5423C261.642 65.3114 230.268 74.679 210.733 59.3548C191.197 44.0307 198.258 15.592 223.406 8.31433Z" stroke="#F0F0F0" stroke-width="37" stroke-linejoin="round"/>
<ellipse cx="1027.73" cy="116.053" rx="21.1283" ry="18.559" fill="#5A5A5A"/>
<ellipse cx="19.5488" cy="20.216" rx="19.5488" ry="20.216" transform="matrix(-0.657333 0.7536 -0.829611 -0.558342 340.098 713.548)" fill="#5A5A5A"/>
<ellipse cx="735.448" cy="630.418" rx="21.1283" ry="18.559" fill="#5A5A5A"/>
<ellipse cx="1188.46" cy="608.15" rx="21.1283" ry="18.559" fill="#5A5A5A"/>
<ellipse cx="656.431" cy="485.256" rx="21.1283" ry="18.559" fill="#5A5A5A"/>
<ellipse cx="195.971" cy="439.129" rx="21.1283" ry="18.559" fill="#5A5A5A"/>
<ellipse cx="824.356" cy="294.895" rx="21.1283" ry="18.559" fill="#5A5A5A"/>
<ellipse cx="1256.91" cy="452.99" rx="21.1283" ry="18.559" fill="#5A5A5A"/>
<ellipse cx="1402.19" cy="335.456" rx="21.1283" ry="18.559" fill="#5A5A5A"/>
<path d="M1161.83 285.302C1161.83 314.653 1133.91 342.396 1094.27 342.396C1054.63 342.396 1026.71 314.653 1026.71 285.302C1026.71 255.95 1054.63 228.208 1094.27 228.208C1133.91 228.208 1161.83 255.95 1161.83 285.302Z" stroke="#F0F0F0" stroke-width="37" stroke-linejoin="round"/>
<path d="M535.97 -4.73127C535.97 31.8701 501.359 65.4899 453.467 65.4899C405.575 65.4899 370.963 31.8701 370.963 -4.73127C370.963 -41.3327 405.575 -74.9525 453.467 -74.9525C501.359 -74.9525 535.97 -41.3327 535.97 -4.73127Z" stroke="#F0F0F0" stroke-width="37" stroke-linejoin="round"/>
<path d="M1518.11 33.6477C1518.11 52.2493 1500.11 71.2775 1472.71 71.2775C1445.31 71.2775 1427.31 52.2493 1427.31 33.6477C1427.31 15.0461 1445.31 -3.98206 1472.71 -3.98206C1500.11 -3.98206 1518.11 15.0461 1518.11 33.6477Z" stroke="#F0F0F0" stroke-width="37" stroke-linejoin="round"/>
<path d="M1662.27 214.11C1662.27 258.461 1620.51 298.364 1563.79 298.364C1507.08 298.364 1465.31 258.461 1465.31 214.11C1465.31 169.759 1507.08 129.857 1563.79 129.857C1620.51 129.857 1662.27 169.759 1662.27 214.11Z" stroke="#F0F0F0" stroke-width="37" stroke-linejoin="round"/>
<path d="M190.272 214.11C190.272 258.461 148.508 298.364 91.7931 298.364C35.0784 298.364 -6.68555 258.461 -6.68555 214.11C-6.68555 169.759 35.0784 129.857 91.7931 129.857C148.508 129.857 190.272 169.759 190.272 214.11Z" stroke="#F0F0F0" stroke-width="37" stroke-linejoin="round"/>
<path d="M1192.77 883.042C1169.41 932.164 1103.43 957.691 1043.48 935.695C983.538 913.698 957.836 854.526 981.197 805.404C1004.56 756.282 1070.54 730.755 1130.49 752.751C1190.43 774.748 1216.13 833.92 1192.77 883.042Z" stroke="#F0F0F0" stroke-width="37" stroke-linejoin="round"/>
</g>
</g>
<defs>
<clipPath id="clip0_2000_1166">
<rect x="86" y="-428" width="1472" height="1293" rx="400" fill="white"/>
</clipPath>
</defs>
</svg>
